<?xml version="1.0" encoding="UTF-8"?>
<svg version="1.1" xmlns="http://www.w3.org/2000/svg" width="32" height="32">
<path d="M0 0 C3.375 1.875 3.375 1.875 6 4 C7.32070628 4.69134444 8.65208723 5.36332631 10 6 C10.77439664 21.50944386 10.77439664 21.50944386 6 27 C2.03034092 30.06461265 -1.60359094 31.33871225 -6.625 31 C-12.06877156 30.05203288 -15.63505132 27.91092815 -18.875 23.375 C-20.83616669 17.49149994 -21.09184915 12.26768669 -18.375 6.625 C-12.88165585 0.55340909 -8.06208968 -1.3393048 0 0 Z " fill="#91A0EE" transform="translate(21,1)"/>
<path d="M0 0 C0.66 0 1.32 0 2 0 C2.77439664 15.50944386 2.77439664 15.50944386 -2 21 C-6.10671145 24.17041832 -9.69616531 25.32533345 -14.875 24.875 C-17.94815016 24.43597855 -18.74159828 24.25840172 -21 22 C-19.68 21.67 -18.36 21.34 -17 21 C-17 21.66 -17 22.32 -17 23 C-15.68 23 -14.36 23 -13 23 C-13.10441406 22.13117187 -13.20882813 21.26234375 -13.31640625 20.3671875 C-13.96777214 11.12399532 -13.96777214 11.12399532 -11.13671875 7.8359375 C-7.56551576 5.46292864 -4.20047047 3.8863378 0 3 C0 2.01 0 1.02 0 0 Z " fill="#767FB2" transform="translate(29,7)"/>
<path d="M0 0 C3.23939656 1.73539102 5.42321134 3.42321134 8 6 C8 6.99 8 7.98 8 9 C6.05535845 10.02658302 4.06748863 10.97193628 2.0625 11.875 C-2.8052061 14.48940594 -2.8052061 14.48940594 -5.01953125 19.34765625 C-5.22929438 22.61498371 -5.25510898 25.73754857 -5 29 C-6.32 29 -7.64 29 -9 29 C-9 28.34 -9 27.68 -9 27 C-8.01 27 -7.02 27 -6 27 C-5.89468268 22.87287766 -5.99200485 19.0163123 -7 15 C-9.36337468 12.5566803 -11.85250255 11.23318807 -15 10 C-14.34 9.67 -13.68 9.34 -13 9 C-11.9275 9.680625 -10.855 10.36125 -9.75 11.0625 C-6.8358385 12.82187966 -6.38852153 13.07770431 -2.875 12.375 C-1.92625 11.92125 -0.9775 11.4675 0 11 C1.423125 10.443125 1.423125 10.443125 2.875 9.875 C3.926875 9.441875 3.926875 9.441875 5 9 C2.67796172 5.79718857 1.34377507 4.26190519 -2.60546875 3.4921875 C-7.11079031 3.30978582 -10.16963773 3.56039645 -14.1875 5.6875 C-17.04427791 10.9085079 -16.38367157 16.17671814 -16 22 C-16.99 22 -17.98 22 -19 22 C-20.857304 18.285392 -20.44282906 14.05406882 -20 10 C-15.85698502 1.39527659 -9.15447269 -1.51583801 0 0 Z " fill="#C8D0E1" transform="translate(21,1)"/>
<path d="M0 0 C3.45286799 0.62120564 5.33596792 1.80795593 7.60546875 4.46875 C7.60546875 5.12875 7.60546875 5.78875 7.60546875 6.46875 C-0.22249167 11.65259935 -0.22249167 11.65259935 -4.58203125 10.96875 C-5.51015625 10.47375 -6.43828125 9.97875 -7.39453125 9.46875 C-8.50828125 8.9325 -9.62203125 8.39625 -10.76953125 7.84375 C-11.63578125 7.39 -12.50203125 6.93625 -13.39453125 6.46875 C-9.76674312 0.46413517 -6.95517631 -0.37544811 0 0 Z " fill="#92A2FC" transform="translate(18.39453125,3.53125)"/>
<path d="M0 0 C0.66 0 1.32 0 2 0 C2.77439664 15.50944386 2.77439664 15.50944386 -2 21 C-6.10671145 24.17041832 -9.69616531 25.32533345 -14.875 24.875 C-17.94815016 24.43597855 -18.74159828 24.25840172 -21 22 C-19.68 21.67 -18.36 21.34 -17 21 C-17 21.66 -17 22.32 -17 23 C-15.35 23.33 -13.7 23.66 -12 24 C-12 23.01 -12 22.02 -12 21 C-10.27473958 20.34895833 -8.54947917 19.69791667 -6.82421875 19.046875 C-4.43951458 17.67835098 -3.38804973 16.37418654 -2 14 C-1.46341459 11.29171622 -1.46341459 11.29171622 -1.375 8.4375 C-1.19713323 5.31636172 -0.99422941 2.98268824 0 0 Z " fill="#64666A" transform="translate(29,7)"/>
<path d="M0 0 C0.63671875 1.796875 0.63671875 1.796875 1 4 C-1.1875 7.25 -1.1875 7.25 -4 10 C-5.32 10 -6.64 10 -8 10 C-6.34908222 5.70761377 -3.26245434 3.1206085 0 0 Z " fill="#7E88BE" transform="translate(27,17)"/>
<path d="M0 0 C0.33 0.66 0.66 1.32 1 2 C3.52733235 2.65555119 3.52733235 2.65555119 6 3 C6 2.01 6 1.02 6 0 C8.31 0.33 10.62 0.66 13 1 C9.91027582 4.08972418 6.25171066 3.96334732 2 4 C-1.0625 3.0625 -1.0625 3.0625 -3 2 C-2.01 1.34 -1.02 0.68 0 0 Z " fill="#46494B" transform="translate(11,28)"/>
<path d="M0 0 C0.33 0.99 0.66 1.98 1 3 C0.113125 3.391875 -0.77375 3.78375 -1.6875 4.1875 C-5.12129608 6.06636955 -7.36541769 8.13295455 -10 11 C-10.3125 8.70703125 -10.3125 8.70703125 -10 6 C-7.8125 4.19921875 -7.8125 4.19921875 -5 2.6875 C-4.071875 2.17574219 -3.14375 1.66398438 -2.1875 1.13671875 C-1.1046875 0.57404297 -1.1046875 0.57404297 0 0 Z " fill="#6871A3" transform="translate(27,10)"/>
<path d="M0 0 C0.66 0 1.32 0 2 0 C2 4.62 2 9.24 2 14 C1.67 14 1.34 14 1 14 C-0.79217969 8.83430559 -1.12029814 5.48946087 0 0 Z " fill="#4C4E50" transform="translate(29,7)"/>
<path d="M0 0 C0.33 0 0.66 0 1 0 C1.33 3.63 1.66 7.26 2 11 C1.01 11 0.02 11 -1 11 C-1.33 9.02 -1.66 7.04 -2 5 C-1.67 5 -1.34 5 -1 5 C-0.67 3.35 -0.34 1.7 0 0 Z " fill="#B3BCCF" transform="translate(3,12)"/>
<path d="M0 0 C2 2 2 2 2.125 5.625 C2.08375 6.73875 2.0425 7.8525 2 9 C1.01 9 0.02 9 -1 9 C-0.67 6.03 -0.34 3.06 0 0 Z " fill="#70737D" transform="translate(28,14)"/>
</svg>
