<?xml version="1.0" encoding="UTF-8"?>
<svg version="1.1" xmlns="http://www.w3.org/2000/svg" width="192" height="192">
<path d="M0 0 C63.36 0 126.72 0 192 0 C192 63.36 192 126.72 192 192 C128.64 192 65.28 192 0 192 C0 128.64 0 65.28 0 0 Z " fill="#EDEEFC" transform="translate(0,0)"/>
<path d="M0 0 C63.36 0 126.72 0 192 0 C192 63.36 192 126.72 192 192 C128.64 192 65.28 192 0 192 C0 128.64 0 65.28 0 0 Z M89 16 C89 16.66 89 17.32 89 18 C88.01 17.505 88.01 17.505 87 17 C85.00039988 16.960008 82.99952758 16.95653201 81 17 C81 17.66 81 18.32 81 19 C79.576875 18.7215625 79.576875 18.7215625 78.125 18.4375 C75.10131207 17.71313368 75.10131207 17.71313368 73 19 C73 19.99 73 20.98 73 22 C72.34 22 71.68 22 71 22 C70.505 21.01 70.505 21.01 70 20 C66.27385847 21.11854586 66.27385847 21.11854586 64 24 C63.34 23.67 62.68 23.34 62 23 C61.01 23.66 60.02 24.32 59 25 C59 26.32 59 27.64 59 29 C58.05125 28.79375 57.1025 28.5875 56.125 28.375 C55.09375 28.25125 54.0625 28.1275 53 28 C52.34 28.66 51.68 29.32 51 30 C51 30.99 51 31.98 51 33 C50.01 32.67 49.02 32.34 48 32 C46.68 33.32 45.36 34.64 44 36 C44.33 36.66 44.66 37.32 45 38 C44.01 37.67 43.02 37.34 42 37 C40.68 38.65 39.36 40.3 38 42 C38.33 42.66 38.66 43.32 39 44 C38.01 43.67 37.02 43.34 36 43 C34.43750191 44.31201173 34.43750191 44.31201173 33 46 C33 46.99 33 47.98 33 49 C31 50.6875 31 50.6875 29 52 C29.66 53.98 30.32 55.96 31 58 C29.35 58 27.7 58 26 58 C24.89163577 59.88316159 24.89163577 59.88316159 24 62 C24.33 62.66 24.66 63.32 25 64 C24.34 64 23.68 64 23 64 C22.34 65.98 21.68 67.96 21 70 C21.33 70.33 21.66 70.66 22 71 C21.2265625 71.5878125 21.2265625 71.5878125 20.4375 72.1875 C19.963125 72.785625 19.48875 73.38375 19 74 C19.23043864 76.65466049 19.23043864 76.65466049 20 79 C19.01 79.495 19.01 79.495 18 80 C17.34227572 83.02934491 17.34227572 83.02934491 17 86 C17.66 86 18.32 86 19 86 C19 86.66 19 87.32 19 88 C18.34 88 17.68 88 17 88 C16.65099442 91.71736641 16.65099442 91.71736641 18.5 94.8125 C18.995 95.204375 19.49 95.59625 20 96 C18.515 96.99 18.515 96.99 17 98 C16.74969023 100.58380177 16.74969023 100.58380177 17 103 C17.66 103 18.32 103 19 103 C18.505 103.99 18.505 103.99 18 105 C17.960008 106.99960012 17.95653201 109.00047242 18 111 C18.66 111 19.32 111 20 111 C19.814375 111.5775 19.62875 112.155 19.4375 112.75 C18.95976454 115.20692525 19.24270636 116.64397534 20 119 C20.66 119 21.32 119 22 119 C21.67 119.99 21.34 120.98 21 122 C21.87914688 124.6569191 21.87914688 124.6569191 23 127 C23.66 127 24.32 127 25 127 C24.67 127.99 24.34 128.98 24 130 C24.66 130.99 25.32 131.98 26 133 C28.58380177 133.25030977 28.58380177 133.25030977 31 133 C30.34 134.98 29.68 136.96 29 139 C29.66 139.66 30.32 140.32 31 141 C31.99 141 32.98 141 34 141 C33.67 141.99 33.34 142.98 33 144 C34.32 145.32 35.64 146.64 37 148 C37.66 147.67 38.32 147.34 39 147 C38.67 147.99 38.34 148.98 38 150 C40.475 151.98 40.475 151.98 43 154 C43.66 153.67 44.32 153.34 45 153 C44.67 153.99 44.34 154.98 44 156 C46.67247634 158.34287418 46.67247634 158.34287418 50 159 C51.625 161 51.625 161 53 163 C54.98 162.67 56.96 162.34 59 162 C59.495 164.475 59.495 164.475 60 167 C60.99 167.33 61.98 167.66 63 168 C63.66 167.67 64.32 167.34 65 167 C65 167.66 65 168.32 65 169 C66.97746603 169.73080266 68.98072489 170.39421747 71 171 C71.66 170.67 72.32 170.34 73 170 C73 170.66 73 171.32 73 172 C77.10223585 173.01540112 77.10223585 173.01540112 81 172 C81 172.66 81 173.32 81 174 C85.14093698 174.20970559 85.14093698 174.20970559 89 173 C89 173.66 89 174.32 89 175 C90.98 175 92.96 175 95 175 C95.66 173.35 96.32 171.7 97 170 C96.34 169.649375 95.68 169.29875 95 168.9375 C93 167 93 167 92.5625 163.5625 C93.00495313 159.95966739 93.41627362 158.48435228 96 156 C96.66 156 97.32 156 98 156 C97.01 156.66 96.02 157.32 95 158 C95 158.66 95 159.32 95 160 C97.31 160.66 99.62 161.32 102 162 C102.08226668 165.04386724 101.97608217 167.07175348 101 170 C100.01 170 99.02 170 98 170 C98.495 172.475 98.495 172.475 99 175 C100.65 175 102.3 175 104 175 C104 174.34 104 173.68 104 173 C104.66 173.33 105.32 173.66 106 174 C107.99960012 174.039992 110.00047242 174.04346799 112 174 C112 173.34 112 172.68 112 172 C112.763125 172.185625 113.52625 172.37125 114.3125 172.5625 C117.08967375 173.22819173 117.08967375 173.22819173 120 172 C120 171.34 120 170.68 120 170 C122.64 169.67 125.28 169.34 128 169 C128 168.34 128 167.68 128 167 C129.98 166.67 131.96 166.34 134 166 C133.505 163.525 133.505 163.525 133 161 C132.34 161 131.68 161 131 161 C131.3609375 160.38511719 131.721875 159.77023438 132.09375 159.13671875 C132.5578125 158.32847656 133.021875 157.52023438 133.5 156.6875 C133.9640625 155.88699219 134.428125 155.08648437 134.90625 154.26171875 C136.21767886 151.9685882 136.21767886 151.9685882 136 149 C134.35 149 132.7 149 131 149 C130.67 148.01 130.34 147.02 130 146 C133.3 146 136.6 146 140 146 C138.64475824 151.42096702 136.63365987 156.0778687 134 161 C135.65 161.66 137.3 162.32 139 163 C139.5775 162.38125 140.155 161.7625 140.75 161.125 C143 159 143 159 145.1875 158 C147.21402157 157.14390805 147.21402157 157.14390805 147.75 154.875 C147.8325 154.25625 147.915 153.6375 148 153 C148.99 153.33 149.98 153.66 151 154 C152.5833253 152.7511573 152.5833253 152.7511573 154 151 C154 149.68 154 148.36 154 147 C154.61875 146.9175 155.2375 146.835 155.875 146.75 C158.14390805 146.21402157 158.14390805 146.21402157 159 144.1875 C159.33 143.465625 159.66 142.74375 160 142 C161.29470975 140.62913085 162.62150897 139.28659163 164 138 C163.34 136.35 162.68 134.7 162 133 C163.65 133 165.3 133 167 133 C167.33 131.02 167.66 129.04 168 127 C168.66 127 169.32 127 170 127 C170.73080266 125.02253397 171.39421747 123.01927511 172 121 C171.67 120.34 171.34 119.68 171 119 C171.66 119 172.32 119 173 119 C174.01540112 114.89776415 174.01540112 114.89776415 173 111 C173.66 111 174.32 111 175 111 C175.20970559 106.85906302 175.20970559 106.85906302 174 103 C174.66 103 175.32 103 176 103 C176.34900558 99.28263359 176.34900558 99.28263359 174.5 96.1875 C174.005 95.795625 173.51 95.40375 173 95 C173.99 94.34 174.98 93.68 176 93 C176.25030977 90.41619823 176.25030977 90.41619823 176 88 C175.34 88 174.68 88 174 88 C174.33 87.34 174.66 86.68 175 86 C175.039992 84.00039988 175.04346799 81.99952758 175 80 C174.34 80 173.68 80 173 80 C173.3403125 78.6078125 173.3403125 78.6078125 173.6875 77.1875 C174.36319983 74.03173152 174.36319983 74.03173152 172.5625 72.125 C172.046875 71.75375 171.53125 71.3825 171 71 C171.33 70.34 171.66 69.68 172 69 C171.10636395 66.39068734 171.10636395 66.39068734 170 64 C169.34 64 168.68 64 168 64 C168 62.35 168 60.7 168 59 C166.35 58.67 164.7 58.34 163 58 C163.37125 56.88625 163.37125 56.88625 163.75 55.75 C163.8325 54.8425 163.915 53.935 164 53 C162.18777466 50.9375006 162.18777466 50.9375006 160 49 C159.30686092 47.34416775 158.63525576 45.67889021 158 44 C157.34 43.67 156.68 43.34 156 43 C155.34 43.33 154.68 43.66 154 44 C154.33 43.01 154.66 42.02 155 41 C153.35 39.68 151.7 38.36 150 37 C149.34 37.33 148.68 37.66 148 38 C147.9175 37.38125 147.835 36.7625 147.75 36.125 C147.21402157 33.85609195 147.21402157 33.85609195 145.1875 33 C144.465625 32.67 143.74375 32.34 143 32 C141.62913085 30.70529025 140.28659163 29.37849103 139 28 C137.35 28.66 135.7 29.32 134 30 C134 28.35 134 26.7 134 25 C132.68 24.34 131.36 23.68 130 23 C129.67 23.33 129.34 23.66 129 24 C128.5875 23.525625 128.175 23.05125 127.75 22.5625 C125.817815 20.83733482 124.51807725 20.43415125 122 20 C122 20.66 122 21.32 122 22 C121.34 22 120.68 22 120 22 C120 21.01 120 20.02 120 19 C115.89776415 17.98459888 115.89776415 17.98459888 112 19 C112 18.34 112 17.68 112 17 C110.00045254 16.95745644 107.99958364 16.95919217 106 17 C105.67 17.33 105.34 17.66 105 18 C104.505 17.01 104.505 17.01 104 16 C101.08365871 15.7497843 101.08365871 15.7497843 98 16 C97.34 16.99 96.68 17.98 96 19 C95.01 17.515 95.01 17.515 94 16 C91.41619823 15.74969023 91.41619823 15.74969023 89 16 Z " fill="#033567" transform="translate(0,0)"/>
<path d="M0 0 C15.90790069 13.01704953 26.37266016 30.28035134 31.02880859 50.22827148 C31.36525391 51.4309668 31.36525391 51.4309668 31.70849609 52.65795898 C37.10398439 74.01817976 31.39886545 98.96163779 20.68896484 117.64233398 C17.80728576 122.13097293 14.49150581 126.17968063 11.02880859 130.22827148 C10.41263672 130.99010742 9.79646484 131.75194336 9.16162109 132.53686523 C-4.54367407 148.94341152 -26.02674957 159.35971967 -47.08447266 161.90795898 C-72.648809 164.01476861 -95.88115982 158.92888056 -115.97119141 142.22827148 C-116.89416016 141.46772461 -117.81712891 140.70717773 -118.76806641 139.92358398 C-130.42831858 129.84165323 -137.65197077 118.05943146 -143.97119141 104.22827148 C-144.50615234 103.08745117 -145.04111328 101.94663086 -145.59228516 100.77124023 C-147.13728001 96.80152257 -147.98728805 93.04459555 -148.65869141 88.85327148 C-148.7846167 88.07306641 -148.91054199 87.29286133 -149.0402832 86.48901367 C-152.67557379 62.04371501 -148.0341642 37.90341983 -133.42822266 17.61889648 C-118.81462177 -1.93827084 -97.9603199 -15.99616931 -73.67041016 -20.36547852 C-46.54182748 -23.34475264 -21.53966406 -16.93125135 0 0 Z M-65.97119141 -8.77172852 C-65.97119141 -8.11172852 -65.97119141 -7.45172852 -65.97119141 -6.77172852 C-66.96119141 -7.26672852 -66.96119141 -7.26672852 -67.97119141 -7.77172852 C-69.97079153 -7.81172052 -71.97166383 -7.81519651 -73.97119141 -7.77172852 C-73.97119141 -7.11172852 -73.97119141 -6.45172852 -73.97119141 -5.77172852 C-75.39431641 -6.05016602 -75.39431641 -6.05016602 -76.84619141 -6.33422852 C-79.86987934 -7.05859484 -79.86987934 -7.05859484 -81.97119141 -5.77172852 C-81.97119141 -4.78172852 -81.97119141 -3.79172852 -81.97119141 -2.77172852 C-82.63119141 -2.77172852 -83.29119141 -2.77172852 -83.97119141 -2.77172852 C-84.46619141 -3.76172852 -84.46619141 -3.76172852 -84.97119141 -4.77172852 C-88.69733294 -3.65318265 -88.69733294 -3.65318265 -90.97119141 -0.77172852 C-91.63119141 -1.10172852 -92.29119141 -1.43172852 -92.97119141 -1.77172852 C-93.96119141 -1.11172852 -94.95119141 -0.45172852 -95.97119141 0.22827148 C-95.97119141 1.54827148 -95.97119141 2.86827148 -95.97119141 4.22827148 C-96.91994141 4.02202148 -97.86869141 3.81577148 -98.84619141 3.60327148 C-99.87744141 3.47952148 -100.90869141 3.35577148 -101.97119141 3.22827148 C-102.63119141 3.88827148 -103.29119141 4.54827148 -103.97119141 5.22827148 C-103.97119141 6.21827148 -103.97119141 7.20827148 -103.97119141 8.22827148 C-104.96119141 7.89827148 -105.95119141 7.56827148 -106.97119141 7.22827148 C-108.29119141 8.54827148 -109.61119141 9.86827148 -110.97119141 11.22827148 C-110.64119141 11.88827148 -110.31119141 12.54827148 -109.97119141 13.22827148 C-110.96119141 12.89827148 -111.95119141 12.56827148 -112.97119141 12.22827148 C-114.29119141 13.87827148 -115.61119141 15.52827148 -116.97119141 17.22827148 C-116.64119141 17.88827148 -116.31119141 18.54827148 -115.97119141 19.22827148 C-116.96119141 18.89827148 -117.95119141 18.56827148 -118.97119141 18.22827148 C-120.5336895 19.54028322 -120.5336895 19.54028322 -121.97119141 21.22827148 C-121.97119141 22.21827148 -121.97119141 23.20827148 -121.97119141 24.22827148 C-123.97119141 25.91577148 -123.97119141 25.91577148 -125.97119141 27.22827148 C-125.31119141 29.20827148 -124.65119141 31.18827148 -123.97119141 33.22827148 C-125.62119141 33.22827148 -127.27119141 33.22827148 -128.97119141 33.22827148 C-130.07955563 35.11143307 -130.07955563 35.11143307 -130.97119141 37.22827148 C-130.64119141 37.88827148 -130.31119141 38.54827148 -129.97119141 39.22827148 C-130.63119141 39.22827148 -131.29119141 39.22827148 -131.97119141 39.22827148 C-132.63119141 41.20827148 -133.29119141 43.18827148 -133.97119141 45.22827148 C-133.64119141 45.55827148 -133.31119141 45.88827148 -132.97119141 46.22827148 C-133.74462891 46.81608398 -133.74462891 46.81608398 -134.53369141 47.41577148 C-135.00806641 48.01389648 -135.48244141 48.61202148 -135.97119141 49.22827148 C-135.74075277 51.88293198 -135.74075277 51.88293198 -134.97119141 54.22827148 C-135.96119141 54.72327148 -135.96119141 54.72327148 -136.97119141 55.22827148 C-137.62891569 58.25761639 -137.62891569 58.25761639 -137.97119141 61.22827148 C-137.31119141 61.22827148 -136.65119141 61.22827148 -135.97119141 61.22827148 C-135.97119141 61.88827148 -135.97119141 62.54827148 -135.97119141 63.22827148 C-136.63119141 63.22827148 -137.29119141 63.22827148 -137.97119141 63.22827148 C-138.32019699 66.9456379 -138.32019699 66.9456379 -136.47119141 70.04077148 C-135.97619141 70.43264648 -135.48119141 70.82452148 -134.97119141 71.22827148 C-136.45619141 72.21827148 -136.45619141 72.21827148 -137.97119141 73.22827148 C-138.22150118 75.81207326 -138.22150118 75.81207326 -137.97119141 78.22827148 C-137.31119141 78.22827148 -136.65119141 78.22827148 -135.97119141 78.22827148 C-136.46619141 79.21827148 -136.46619141 79.21827148 -136.97119141 80.22827148 C-137.01118341 82.2278716 -137.0146594 84.22874391 -136.97119141 86.22827148 C-136.31119141 86.22827148 -135.65119141 86.22827148 -134.97119141 86.22827148 C-135.15681641 86.80577148 -135.34244141 87.38327148 -135.53369141 87.97827148 C-136.01142687 90.43519673 -135.72848505 91.87224682 -134.97119141 94.22827148 C-134.31119141 94.22827148 -133.65119141 94.22827148 -132.97119141 94.22827148 C-133.30119141 95.21827148 -133.63119141 96.20827148 -133.97119141 97.22827148 C-133.09204452 99.88519059 -133.09204452 99.88519059 -131.97119141 102.22827148 C-131.31119141 102.22827148 -130.65119141 102.22827148 -129.97119141 102.22827148 C-130.30119141 103.21827148 -130.63119141 104.20827148 -130.97119141 105.22827148 C-130.31119141 106.21827148 -129.65119141 107.20827148 -128.97119141 108.22827148 C-126.38738963 108.47858126 -126.38738963 108.47858126 -123.97119141 108.22827148 C-124.63119141 110.20827148 -125.29119141 112.18827148 -125.97119141 114.22827148 C-125.31119141 114.88827148 -124.65119141 115.54827148 -123.97119141 116.22827148 C-122.98119141 116.22827148 -121.99119141 116.22827148 -120.97119141 116.22827148 C-121.30119141 117.21827148 -121.63119141 118.20827148 -121.97119141 119.22827148 C-120.65119141 120.54827148 -119.33119141 121.86827148 -117.97119141 123.22827148 C-117.31119141 122.89827148 -116.65119141 122.56827148 -115.97119141 122.22827148 C-116.30119141 123.21827148 -116.63119141 124.20827148 -116.97119141 125.22827148 C-114.49619141 127.20827148 -114.49619141 127.20827148 -111.97119141 129.22827148 C-111.31119141 128.89827148 -110.65119141 128.56827148 -109.97119141 128.22827148 C-110.30119141 129.21827148 -110.63119141 130.20827148 -110.97119141 131.22827148 C-108.29871507 133.57114567 -108.29871507 133.57114567 -104.97119141 134.22827148 C-103.34619141 136.22827148 -103.34619141 136.22827148 -101.97119141 138.22827148 C-99.99119141 137.89827148 -98.01119141 137.56827148 -95.97119141 137.22827148 C-95.47619141 139.70327148 -95.47619141 139.70327148 -94.97119141 142.22827148 C-93.98119141 142.55827148 -92.99119141 142.88827148 -91.97119141 143.22827148 C-91.31119141 142.89827148 -90.65119141 142.56827148 -89.97119141 142.22827148 C-89.97119141 142.88827148 -89.97119141 143.54827148 -89.97119141 144.22827148 C-87.99372537 144.95907415 -85.99046652 145.62248895 -83.97119141 146.22827148 C-83.31119141 145.89827148 -82.65119141 145.56827148 -81.97119141 145.22827148 C-81.97119141 145.88827148 -81.97119141 146.54827148 -81.97119141 147.22827148 C-77.86895555 148.24367261 -77.86895555 148.24367261 -73.97119141 147.22827148 C-73.97119141 147.88827148 -73.97119141 148.54827148 -73.97119141 149.22827148 C-69.83025442 149.43797708 -69.83025442 149.43797708 -65.97119141 148.22827148 C-65.97119141 148.88827148 -65.97119141 149.54827148 -65.97119141 150.22827148 C-63.99119141 150.22827148 -62.01119141 150.22827148 -59.97119141 150.22827148 C-59.31119141 148.57827148 -58.65119141 146.92827148 -57.97119141 145.22827148 C-58.63119141 144.87764648 -59.29119141 144.52702148 -59.97119141 144.16577148 C-61.97119141 142.22827148 -61.97119141 142.22827148 -62.40869141 138.79077148 C-61.96623828 135.18793888 -61.55491778 133.71262377 -58.97119141 131.22827148 C-58.31119141 131.22827148 -57.65119141 131.22827148 -56.97119141 131.22827148 C-57.96119141 131.88827148 -58.95119141 132.54827148 -59.97119141 133.22827148 C-59.97119141 133.88827148 -59.97119141 134.54827148 -59.97119141 135.22827148 C-57.66119141 135.88827148 -55.35119141 136.54827148 -52.97119141 137.22827148 C-52.88892472 140.27213873 -52.99510923 142.30002497 -53.97119141 145.22827148 C-54.96119141 145.22827148 -55.95119141 145.22827148 -56.97119141 145.22827148 C-56.47619141 147.70327148 -56.47619141 147.70327148 -55.97119141 150.22827148 C-54.32119141 150.22827148 -52.67119141 150.22827148 -50.97119141 150.22827148 C-50.97119141 149.56827148 -50.97119141 148.90827148 -50.97119141 148.22827148 C-50.31119141 148.55827148 -49.65119141 148.88827148 -48.97119141 149.22827148 C-46.97159129 149.26826349 -44.97071898 149.27173948 -42.97119141 149.22827148 C-42.97119141 148.56827148 -42.97119141 147.90827148 -42.97119141 147.22827148 C-42.20806641 147.41389648 -41.44494141 147.59952148 -40.65869141 147.79077148 C-37.88151765 148.45646321 -37.88151765 148.45646321 -34.97119141 147.22827148 C-34.97119141 146.56827148 -34.97119141 145.90827148 -34.97119141 145.22827148 C-32.33119141 144.89827148 -29.69119141 144.56827148 -26.97119141 144.22827148 C-26.97119141 143.56827148 -26.97119141 142.90827148 -26.97119141 142.22827148 C-24.99119141 141.89827148 -23.01119141 141.56827148 -20.97119141 141.22827148 C-21.46619141 138.75327148 -21.46619141 138.75327148 -21.97119141 136.22827148 C-22.63119141 136.22827148 -23.29119141 136.22827148 -23.97119141 136.22827148 C-23.61025391 135.61338867 -23.24931641 134.99850586 -22.87744141 134.36499023 C-22.41337891 133.55674805 -21.94931641 132.74850586 -21.47119141 131.91577148 C-21.00712891 131.11526367 -20.54306641 130.31475586 -20.06494141 129.48999023 C-18.75351255 127.19685969 -18.75351255 127.19685969 -18.97119141 124.22827148 C-20.62119141 124.22827148 -22.27119141 124.22827148 -23.97119141 124.22827148 C-24.30119141 123.23827148 -24.63119141 122.24827148 -24.97119141 121.22827148 C-21.67119141 121.22827148 -18.37119141 121.22827148 -14.97119141 121.22827148 C-16.32643316 126.64923851 -18.33753154 131.30614018 -20.97119141 136.22827148 C-19.32119141 136.88827148 -17.67119141 137.54827148 -15.97119141 138.22827148 C-15.39369141 137.60952148 -14.81619141 136.99077148 -14.22119141 136.35327148 C-11.97119141 134.22827148 -11.97119141 134.22827148 -9.78369141 133.22827148 C-7.75716984 132.37217953 -7.75716984 132.37217953 -7.22119141 130.10327148 C-7.13869141 129.48452148 -7.05619141 128.86577148 -6.97119141 128.22827148 C-5.98119141 128.55827148 -4.99119141 128.88827148 -3.97119141 129.22827148 C-2.38786611 127.97942878 -2.38786611 127.97942878 -0.97119141 126.22827148 C-0.97119141 124.90827148 -0.97119141 123.58827148 -0.97119141 122.22827148 C-0.35244141 122.14577148 0.26630859 122.06327148 0.90380859 121.97827148 C3.17271664 121.44229305 3.17271664 121.44229305 4.02880859 119.41577148 C4.35880859 118.69389648 4.68880859 117.97202148 5.02880859 117.22827148 C6.32351834 115.85740234 7.65031756 114.51486312 9.02880859 113.22827148 C8.36880859 111.57827148 7.70880859 109.92827148 7.02880859 108.22827148 C8.67880859 108.22827148 10.32880859 108.22827148 12.02880859 108.22827148 C12.35880859 106.24827148 12.68880859 104.26827148 13.02880859 102.22827148 C13.68880859 102.22827148 14.34880859 102.22827148 15.02880859 102.22827148 C15.75961126 100.25080545 16.42302606 98.24754659 17.02880859 96.22827148 C16.69880859 95.56827148 16.36880859 94.90827148 16.02880859 94.22827148 C16.68880859 94.22827148 17.34880859 94.22827148 18.02880859 94.22827148 C19.04420972 90.12603563 19.04420972 90.12603563 18.02880859 86.22827148 C18.68880859 86.22827148 19.34880859 86.22827148 20.02880859 86.22827148 C20.23851419 82.0873345 20.23851419 82.0873345 19.02880859 78.22827148 C19.68880859 78.22827148 20.34880859 78.22827148 21.02880859 78.22827148 C21.37781417 74.51090507 21.37781417 74.51090507 19.52880859 71.41577148 C19.03380859 71.02389648 18.53880859 70.63202148 18.02880859 70.22827148 C19.01880859 69.56827148 20.00880859 68.90827148 21.02880859 68.22827148 C21.27911836 65.64446971 21.27911836 65.64446971 21.02880859 63.22827148 C20.36880859 63.22827148 19.70880859 63.22827148 19.02880859 63.22827148 C19.35880859 62.56827148 19.68880859 61.90827148 20.02880859 61.22827148 C20.0688006 59.22867136 20.07227658 57.22779906 20.02880859 55.22827148 C19.36880859 55.22827148 18.70880859 55.22827148 18.02880859 55.22827148 C18.36912109 53.83608398 18.36912109 53.83608398 18.71630859 52.41577148 C19.39200843 49.26000301 19.39200843 49.26000301 17.59130859 47.35327148 C17.07568359 46.98202148 16.56005859 46.61077148 16.02880859 46.22827148 C16.35880859 45.56827148 16.68880859 44.90827148 17.02880859 44.22827148 C16.13517255 41.61895882 16.13517255 41.61895882 15.02880859 39.22827148 C14.36880859 39.22827148 13.70880859 39.22827148 13.02880859 39.22827148 C13.02880859 37.57827148 13.02880859 35.92827148 13.02880859 34.22827148 C11.37880859 33.89827148 9.72880859 33.56827148 8.02880859 33.22827148 C8.40005859 32.11452148 8.40005859 32.11452148 8.77880859 30.97827148 C8.86130859 30.07077148 8.94380859 29.16327148 9.02880859 28.22827148 C7.21658325 26.16577209 7.21658325 26.16577209 5.02880859 24.22827148 C4.33566951 22.57243924 3.66406435 20.9071617 3.02880859 19.22827148 C2.36880859 18.89827148 1.70880859 18.56827148 1.02880859 18.22827148 C0.36880859 18.55827148 -0.29119141 18.88827148 -0.97119141 19.22827148 C-0.64119141 18.23827148 -0.31119141 17.24827148 0.02880859 16.22827148 C-1.62119141 14.90827148 -3.27119141 13.58827148 -4.97119141 12.22827148 C-5.63119141 12.55827148 -6.29119141 12.88827148 -6.97119141 13.22827148 C-7.05369141 12.60952148 -7.13619141 11.99077148 -7.22119141 11.35327148 C-7.75716984 9.08436344 -7.75716984 9.08436344 -9.78369141 8.22827148 C-10.50556641 7.89827148 -11.22744141 7.56827148 -11.97119141 7.22827148 C-13.34206055 5.93356173 -14.68459977 4.60676252 -15.97119141 3.22827148 C-17.62119141 3.88827148 -19.27119141 4.54827148 -20.97119141 5.22827148 C-20.97119141 3.57827148 -20.97119141 1.92827148 -20.97119141 0.22827148 C-22.29119141 -0.43172852 -23.61119141 -1.09172852 -24.97119141 -1.77172852 C-25.30119141 -1.44172852 -25.63119141 -1.11172852 -25.97119141 -0.77172852 C-26.38369141 -1.24610352 -26.79619141 -1.72047852 -27.22119141 -2.20922852 C-29.1533764 -3.93439369 -30.45311416 -4.33757727 -32.97119141 -4.77172852 C-32.97119141 -4.11172852 -32.97119141 -3.45172852 -32.97119141 -2.77172852 C-33.63119141 -2.77172852 -34.29119141 -2.77172852 -34.97119141 -2.77172852 C-34.97119141 -3.76172852 -34.97119141 -4.75172852 -34.97119141 -5.77172852 C-39.07342726 -6.78712964 -39.07342726 -6.78712964 -42.97119141 -5.77172852 C-42.97119141 -6.43172852 -42.97119141 -7.09172852 -42.97119141 -7.77172852 C-44.97073887 -7.81427208 -46.97160777 -7.81253634 -48.97119141 -7.77172852 C-49.30119141 -7.44172852 -49.63119141 -7.11172852 -49.97119141 -6.77172852 C-50.46619141 -7.76172852 -50.46619141 -7.76172852 -50.97119141 -8.77172852 C-53.8875327 -9.02194421 -53.8875327 -9.02194421 -56.97119141 -8.77172852 C-57.63119141 -7.78172852 -58.29119141 -6.79172852 -58.97119141 -5.77172852 C-59.96119141 -7.25672852 -59.96119141 -7.25672852 -60.97119141 -8.77172852 C-63.55499318 -9.02203829 -63.55499318 -9.02203829 -65.97119141 -8.77172852 Z " fill="#1B5392" transform="translate(154.97119140625,24.771728515625)"/>
<path d="M0 0 C0.33 0 0.66 0 1 0 C1.01401855 0.95700806 1.01401855 0.95700806 1.02832031 1.93334961 C1.05225416 23.0003069 1.05225416 23.0003069 7 43 C7.99 43.33 8.98 43.66 10 44 C10.33 45.65 10.66 47.3 11 49 C12.65 49.33 14.3 49.66 16 50 C15.67 51.98 15.34 53.96 15 56 C15.639375 56.2475 16.27875 56.495 16.9375 56.75 C19.544301 58.32987939 19.29195078 59.16780311 20 62 C20.66 62.33 21.32 62.66 22 63 C22.66 63.33 23.32 63.66 24 64 C24.3721042 65.32303717 24.70630173 66.65737935 25 68 C27.67642489 70.18490007 27.67642489 70.18490007 30 70 C30.33 71.32 30.66 72.64 31 74 C31.78375 74.0825 32.5675 74.165 33.375 74.25 C36 75 36 75 37.3125 77.0625 C37.6528125 78.0215625 37.6528125 78.0215625 38 79 C39.98 79 41.96 79 44 79 C44.33 80.32 44.66 81.64 45 83 C46.65 83.33 48.3 83.66 50 84 C50 84.66 50 85.32 50 86 C52.64 86.33 55.28 86.66 58 87 C58 87.66 58 88.32 58 89 C60.64 89 63.28 89 66 89 C66 89.66 66 90.32 66 91 C68.64 90.67 71.28 90.34 74 90 C74 90.66 74 91.32 74 92 C75.98 92 77.96 92 80 92 C80.86358623 90.21858253 80.86358623 90.21858253 81 88 C80.360625 87.401875 79.72125 86.80375 79.0625 86.1875 C77 84 77 84 76.5 80.5625 C77.06762351 76.5181825 78.19451816 74.89315314 81 72 C82.98 72.495 82.98 72.495 85 73 C84.360625 73.28875 83.72125 73.5775 83.0625 73.875 C80.84793921 74.82823451 80.84793921 74.82823451 80 77 C80.94875 76.95875 81.8975 76.9175 82.875 76.875 C86 77 86 77 88 79 C88.38286803 82.73296326 88.14915785 83.77626323 86 87 C85.01 87 84.02 87 83 87 C83.33 88.65 83.66 90.3 84 92 C85.65 92 87.3 92 89 92 C89 91.34 89 90.68 89 90 C91.64 90.33 94.28 90.66 97 91 C97 90.34 97 89.68 97 89 C99.64 89 102.28 89 105 89 C105 88.34 105 87.68 105 87 C107.64 86.67 110.28 86.34 113 86 C113 85.34 113 84.68 113 84 C114.65 83.34 116.3 82.68 118 82 C118 80.68 118 79.36 118 78 C117.34 78 116.68 78 116 78 C117.31061591 73.76570244 118.94356259 69.92592596 121 66 C119.02 66.33 117.04 66.66 115 67 C115 65.68 115 64.36 115 63 C118.3 63 121.6 63 125 63 C125.74737188 68.97897503 123.3231898 72.32379721 120 77 C121.88316159 78.10836423 121.88316159 78.10836423 124 79 C126.33075929 78.04134491 126.33075929 78.04134491 128 75 C128.680625 74.67 129.36125 74.34 130.0625 74 C132.35342991 73.10301684 132.35342991 73.10301684 133 70 C133.639375 69.87625 134.27875 69.7525 134.9375 69.625 C135.618125 69.41875 136.29875 69.2125 137 69 C137.309375 68.21625 137.61875 67.4325 137.9375 66.625 C139.28644043 63.29232365 140.9671934 62.7558354 144 61 C144 60.01 144 59.02 144 58 C144.99 57.67 145.98 57.34 147 57 C148.04449911 53.86650268 147.93423645 53.01031744 147 50 C148.65 50 150.3 50 152 50 C152.33 49.34 152.66 48.68 153 48 C153.928125 46.515 153.928125 46.515 154.875 45 C160.76404738 34.72093548 161.14434884 23.11306894 161.5625 11.5625 C161.62727539 9.8928418 161.62727539 9.8928418 161.69335938 8.18945312 C161.79879888 5.45974156 161.90092029 2.72994857 162 0 C163.68997323 1.64302953 165.35216394 3.31471312 167 5 C167.7734375 5.67804688 168.546875 6.35609375 169.34375 7.0546875 C172.07419409 11.91024137 171.04428362 16.72013703 170.5 22.125 C170.42007813 23.20265625 170.34015625 24.2803125 170.2578125 25.390625 C169.59593515 32.81438451 167.79494792 39.1201282 165 46 C164.432384 47.62322005 163.86914277 49.2479843 163.3125 50.875 C160.43506592 58.04556572 155.09969505 67.15065795 149 72 C148.01 72 147.02 72 146 72 C145.67 73.65 145.34 75.3 145 77 C143.865625 77.2475 142.73125 77.495 141.5625 77.75 C133.93238542 79.688022 128.93442603 81.79305965 124 88 C115.96111485 94.70472418 108.23029881 98.6168802 98 101 C97.07058594 101.22300781 96.14117187 101.44601563 95.18359375 101.67578125 C93.12931898 102.14836089 91.06563962 102.57986991 89 103 C89 103.33 89 103.66 89 104 C82.73 104 76.46 104 70 104 C70 103.67 70 103.34 70 103 C74.455 102.505 74.455 102.505 79 102 C77.92363281 101.89042969 76.84726563 101.78085938 75.73828125 101.66796875 C44.53286003 98.34503636 44.53286003 98.34503636 36.375 89.375 C33.22671522 85.47259119 30.37352197 81.35965769 27.578125 77.19921875 C24.90325402 73.4716139 22.32950551 71.51333975 18.3125 69.3125 C6.82877365 62.50918614 -0.17314958 52.34855614 -4.12109375 39.6953125 C-6.35379952 30.30802514 -8.56840686 19.68780311 -8 10 C-6.28515625 7.32421875 -6.28515625 7.32421875 -4.0625 4.6875 C-3.33160156 3.80449219 -2.60070312 2.92148438 -1.84765625 2.01171875 C-1.23792969 1.34785156 -0.62820312 0.68398437 0 0 Z " fill="#1A518F" transform="translate(15,83)"/>
<path d="M0 0 C0.67498535 0.0731543 1.3499707 0.14630859 2.04541016 0.22167969 C17.11472231 1.86584868 30.76108286 6.27713511 41.25390625 17.76171875 C43.36579645 20.46890686 45.05064714 23.3157708 46.76171875 26.28515625 C48.93226593 29.29105597 51.69526707 30.37662242 55 32 C60.69892473 35.5483871 60.69892473 35.5483871 63 39 C63.1953125 42.35546875 63.1953125 42.35546875 63.125 46.1875 C63.10695312 47.45980469 63.08890625 48.73210938 63.0703125 50.04296875 C63.04710937 51.01878906 63.02390625 51.99460938 63 53 C62.67 52.34 62.34 51.68 62 51 C60.02 51 58.04 51 56 51 C55.8453125 49.329375 55.8453125 49.329375 55.6875 47.625 C55.460625 46.42875 55.23375 45.2325 55 44 C54.01 43.34 53.02 42.68 52 42 C50.8125 39.375 50.8125 39.375 50 37 C49.01 37 48.02 37 47 37 C46.896875 36.38125 46.79375 35.7625 46.6875 35.125 C46.12474627 32.63473516 46.12474627 32.63473516 43 31 C42.34 31 41.68 31 41 31 C40.525625 30.175 40.05125 29.35 39.5625 28.5 C39.046875 27.675 38.53125 26.85 38 26 C37.01 26 36.02 26 35 26 C34.505 24.515 34.505 24.515 34 23 C30.86650268 21.95550089 30.01031744 22.06576355 27 23 C27 21.35 27 19.7 27 18 C23.95086772 16.98888907 23.95086772 16.98888907 21 18 C21 17.01 21 16.02 21 15 C17.71303767 14.20046862 16.28976808 13.90341064 13 15 C13 14.01 13 13.02 13 12 C10.36 12 7.72 12 5 12 C5 11.34 5 10.68 5 10 C2.36 10.66 -0.28 11.32 -3 12 C-3 11.01 -3 10.02 -3 9 C-4.98 9 -6.96 9 -9 9 C-9.33 10.32 -9.66 11.64 -10 13 C-10.99 12.34 -11.98 11.68 -13 11 C-13 10.34 -13 9.68 -13 9 C-14.65 9 -16.3 9 -18 9 C-18 9.66 -18 10.32 -18 11 C-20.64 10.67 -23.28 10.34 -26 10 C-26 10.66 -26 11.32 -26 12 C-28.64 12 -31.28 12 -34 12 C-34 12.99 -34 13.98 -34 15 C-34.99 14.67 -35.98 14.34 -37 14 C-39.08333333 14.16666667 -39.08333333 14.16666667 -41 15 C-41.66 15.99 -42.32 16.98 -43 18 C-43.66 17.67 -44.32 17.34 -45 17 C-45.99 17.495 -45.99 17.495 -47 18 C-47.65213292 20.02463255 -47.65213292 20.02463255 -48 22 C-49.98 22 -51.96 22 -54 22 C-54.2475 22.639375 -54.495 23.27875 -54.75 23.9375 C-56 26 -56 26 -58 26.625 C-58.66 26.74875 -59.32 26.8725 -60 27 C-60.66 27.66 -61.32 28.32 -62 29 C-62 29.66 -62 30.32 -62 31 C-62.928125 31.1546875 -62.928125 31.1546875 -63.875 31.3125 C-66.36526484 31.87525373 -66.36526484 31.87525373 -68 35 C-68 35.66 -68 36.32 -68 37 C-69.98 37.495 -69.98 37.495 -72 38 C-72.061875 38.763125 -72.12375 39.52625 -72.1875 40.3125 C-73 43 -73 43 -75.375 44.6875 C-76.24125 45.120625 -77.1075 45.55375 -78 46 C-78.99 46.66 -79.98 47.32 -81 48 C-82.19768919 36.00647355 -82.19768919 36.00647355 -79.640625 31.72265625 C-75.07066513 27.55870521 -69.39596916 24.95539321 -63.83203125 22.359375 C-59.24016544 20.15527941 -55.7450369 17.962546 -52.3125 14.1875 C-44.2211289 5.88239457 -33.87445424 0.8809115 -22.375 -0.25 C-21.18487305 -0.37121216 -21.18487305 -0.37121216 -19.97070312 -0.49487305 C-13.18208571 -1.11295553 -6.76113245 -0.91808243 0 0 Z " fill="#1B518D" transform="translate(107,7)"/>
<path d="M0 0 C-0.68964844 0.40089844 -1.37929687 0.80179688 -2.08984375 1.21484375 C-7.15270521 4.27756241 -11.44004111 7.2380828 -15.4375 11.625 C-19.53614299 15.96560223 -23.50554236 17.71153664 -29.05078125 19.7421875 C-33.99063833 21.84898747 -38.20851565 25.20851565 -42 29 C-42.07258946 31.18639453 -42.08373783 33.37500389 -42.0625 35.5625 C-42.05347656 36.76003906 -42.04445313 37.95757812 -42.03515625 39.19140625 C-42.02355469 40.11824219 -42.01195313 41.04507813 -42 42 C-41.01 42 -40.02 42 -39 42 C-38.67 43.32 -38.34 44.64 -38 46 C-40.475 46.495 -40.475 46.495 -43 47 C-43.33 48.65 -43.66 50.3 -44 52 C-44.66 52 -45.32 52 -46 52 C-47.01540112 56.10223585 -47.01540112 56.10223585 -46 60 C-46.99 60 -47.98 60 -49 60 C-49.20970559 64.14093698 -49.20970559 64.14093698 -48 68 C-48.99 68 -49.98 68 -51 68 C-51.33 69.98 -51.66 71.96 -52 74 C-51.34 74 -50.68 74 -50 74 C-50 74.66 -50 75.32 -50 76 C-50.66 76 -51.32 76 -52 76 C-52 77.65 -52 79.3 -52 81 C-50.68 81.66 -49.36 82.32 -48 83 C-48.66 83.99 -49.32 84.98 -50 86 C-50.66 86 -51.32 86 -52 86 C-52 87.65 -52 89.3 -52 91 C-51.34 91 -50.68 91 -50 91 C-50.33 93.64 -50.66 96.28 -51 99 C-50.34 99 -49.68 99 -49 99 C-49 101.64 -49 104.28 -49 107 C-48.34 107 -47.68 107 -47 107 C-46.67 109.64 -46.34 112.28 -46 115 C-49.49832215 112.33127996 -50.18060837 108.77750748 -51.125 104.6875 C-51.29676758 103.95926025 -51.46853516 103.23102051 -51.64550781 102.48071289 C-53.72923242 92.78532436 -53.84005235 82.88228253 -54 73 C-55.17806867 74.21969854 -56.33887926 75.45608141 -57.4921875 76.69921875 C-58.1404248 77.38588623 -58.78866211 78.07255371 -59.45654297 78.7800293 C-61.80968231 82.1645747 -61.31609016 84.68788743 -60.6484375 88.6171875 C-60.43445313 89.73351562 -60.22046875 90.84984375 -60 92 C-59.79675688 93.50155203 -59.60208234 95.0042784 -59.4140625 96.5078125 C-57.22217177 113.31062464 -52.29780705 126.24122804 -39.10546875 137.46875 C-36.95807902 139.03048799 -34.83162732 140.11187496 -32.4375 141.25 C-27.46706022 143.82473896 -25.44660387 147.51537829 -22.70703125 152.26953125 C-20.62849559 155.59423703 -18.18611764 158.05247887 -15.28515625 160.66015625 C-14 162 -14 162 -14 164 C-7.94229436 166.14915919 -1.91949224 167.8320703 4.375 169.125 C5.19919434 169.29821777 6.02338867 169.47143555 6.87255859 169.64990234 C12.29491154 170.75396282 17.62526336 171.50501053 23.1640625 171.7265625 C24.07285156 171.86191406 24.07285156 171.86191406 25 172 C25.33 172.66 25.66 173.32 26 174 C4.74258311 174.87226483 -13.64108512 168.59897525 -30 155 C-30.92296875 154.23945313 -31.8459375 153.47890625 -32.796875 152.6953125 C-44.45712718 142.61338175 -51.68077936 130.83115997 -58 117 C-58.53496094 115.85917969 -59.06992187 114.71835938 -59.62109375 113.54296875 C-61.16608861 109.57325108 -62.01609664 105.81632407 -62.6875 101.625 C-62.81342529 100.84479492 -62.93935059 100.06458984 -63.0690918 99.26074219 C-66.55966874 75.78856195 -62.63572981 51.77758227 -48.67529297 32.13623047 C-37.25912783 16.7885674 -37.25912783 16.7885674 -30 14 C-28.30251908 12.79217704 -26.63747003 11.53800996 -25 10.25 C-6.72561308 -3.36280654 -6.72561308 -3.36280654 0 0 Z " fill="#1C538F" transform="translate(69,12)"/>
<path d="M0 0 C1.68997323 1.64302953 3.35216394 3.31471312 5 5 C5.7734375 5.67804688 6.546875 6.35609375 7.34375 7.0546875 C10.07419409 11.91024137 9.04428362 16.72013703 8.5 22.125 C8.42007813 23.20265625 8.34015625 24.2803125 8.2578125 25.390625 C7.59593515 32.81438451 5.79494792 39.1201282 3 46 C2.432384 47.62322005 1.86914277 49.2479843 1.3125 50.875 C-1.56493408 58.04556572 -6.90030495 67.15065795 -13 72 C-13.99 72 -14.98 72 -16 72 C-16.33 73.65 -16.66 75.3 -17 77 C-18.7325 77.4021875 -18.7325 77.4021875 -20.5 77.8125 C-23.55321702 78.56089067 -26.39935883 79.50927222 -29.3125 80.6875 C-33 82 -33 82 -36 81 C-32.61733149 77.55605127 -29.12459526 74.31179302 -25.5 71.125 C-17.34767194 63.95918816 -17.34767194 63.95918816 -14 54 C-14.36856864 51.76832815 -14.36856864 51.76832815 -15 50 C-13.35 50 -11.7 50 -10 50 C-9.67 49.34 -9.34 48.68 -9 48 C-8.38125 47.01 -7.7625 46.02 -7.125 45 C-1.23595262 34.72093548 -0.85565116 23.11306894 -0.4375 11.5625 C-0.37272461 9.8928418 -0.37272461 9.8928418 -0.30664062 8.18945312 C-0.20120112 5.45974156 -0.09907971 2.72994857 0 0 Z " fill="#19508E" transform="translate(177,83)"/>
<path d="M0 0 C0.495 0.99 0.495 0.99 1 2 C-4.29985556 9.09114752 -9.95351802 15.57761424 -17 21 C-17.66 21 -18.32 21 -19 21 C-19 22.32 -19 23.64 -19 25 C-21.21849161 30.26891758 -25.44936243 32.86677413 -30 36 C-30.57363281 36.44601563 -31.14726562 36.89203125 -31.73828125 37.3515625 C-40.29010493 43.5331468 -52.649437 45.73932593 -63 45 C-60.10492782 42.02450915 -57.33810482 39.50357861 -54 37 C-67.86 36.505 -67.86 36.505 -82 36 C-82 35.34 -82 34.68 -82 34 C-77.545 33.505 -77.545 33.505 -73 33 C-73 33.66 -73 34.32 -73 35 C-71.02 35 -69.04 35 -67 35 C-66.13641377 33.21858253 -66.13641377 33.21858253 -66 31 C-66.9590625 30.1028125 -66.9590625 30.1028125 -67.9375 29.1875 C-70 27 -70 27 -70.5 23.5625 C-69.93237649 19.5181825 -68.80548184 17.89315314 -66 15 C-64.68 15.33 -63.36 15.66 -62 16 C-62.639375 16.28875 -63.27875 16.5775 -63.9375 16.875 C-66.15206079 17.82823451 -66.15206079 17.82823451 -67 20 C-66.05125 19.95875 -65.1025 19.9175 -64.125 19.875 C-61 20 -61 20 -59 22 C-58.61713197 25.73296326 -58.85084215 26.77626323 -61 30 C-61.99 30 -62.98 30 -64 30 C-63.67 31.65 -63.34 33.3 -63 35 C-61.35 35 -59.7 35 -58 35 C-58 34.34 -58 33.68 -58 33 C-55.36 33.33 -52.72 33.66 -50 34 C-50 33.34 -50 32.68 -50 32 C-47.36 32 -44.72 32 -42 32 C-42 31.34 -42 30.68 -42 30 C-38.04 29.505 -38.04 29.505 -34 29 C-34 28.34 -34 27.68 -34 27 C-32.35 26.34 -30.7 25.68 -29 25 C-29 23.68 -29 22.36 -29 21 C-29.66 21 -30.32 21 -31 21 C-29.68938409 16.76570244 -28.05643741 12.92592596 -26 9 C-27.98 9.33 -29.96 9.66 -32 10 C-32 8.68 -32 7.36 -32 6 C-28.7 6 -25.4 6 -22 6 C-21.25262812 11.97897503 -23.6768102 15.32379721 -27 20 C-25.11683841 21.10836423 -25.11683841 21.10836423 -23 22 C-20.66924071 21.04134491 -20.66924071 21.04134491 -19 18 C-18.319375 17.67 -17.63875 17.34 -16.9375 17 C-14.64657009 16.10301684 -14.64657009 16.10301684 -14 13 C-13.360625 12.87625 -12.72125 12.7525 -12.0625 12.625 C-11.381875 12.41875 -10.70125 12.2125 -10 12 C-9.690625 11.21625 -9.38125 10.4325 -9.0625 9.625 C-7.71355957 6.29232365 -6.0328066 5.7558354 -3 4 C-3 3.01 -3 2.02 -3 1 C-2.01 0.67 -1.02 0.34 0 0 Z " fill="#1A5291" transform="translate(162,140)"/>
<path d="M0 0 C0 3.8801042 -1.25171273 4.91089207 -3.625 7.9375 C-12.18966896 19.46802605 -18.74249141 33.12476724 -18.00390625 47.77734375 C-17.99988614 50.06478377 -18.39001721 51.76182039 -19.0625 53.9375 C-20.48729514 59.0871167 -19.7309779 63.76837308 -19 69 C-18.86634033 70.06782715 -18.86634033 70.06782715 -18.72998047 71.15722656 C-16.50477328 88.80491588 -12.06063641 102.59201156 1.89453125 114.46875 C4.04192098 116.03048799 6.16837268 117.11187496 8.5625 118.25 C13.53293978 120.82473896 15.55339613 124.51537829 18.29296875 129.26953125 C20.37150441 132.59423703 22.81388236 135.05247887 25.71484375 137.66015625 C27 139 27 139 27 141 C33.05770564 143.14915919 39.08050776 144.8320703 45.375 146.125 C46.19919434 146.29821777 47.02338867 146.47143555 47.87255859 146.64990234 C53.29491154 147.75396282 58.62526336 148.50501053 64.1640625 148.7265625 C65.07285156 148.86191406 65.07285156 148.86191406 66 149 C66.33 149.66 66.66 150.32 67 151 C45.74258311 151.87226483 27.35891488 145.59897525 11 132 C10.07703125 131.23945313 9.1540625 130.47890625 8.203125 129.6953125 C-3.45712718 119.61338175 -10.68077936 107.83115997 -17 94 C-17.53496094 92.85917969 -18.06992187 91.71835938 -18.62109375 90.54296875 C-20.16608861 86.57325108 -21.01609664 82.81632407 -21.6875 78.625 C-21.81342529 77.84479492 -21.93935059 77.06458984 -22.0690918 76.26074219 C-25.64482258 52.21594992 -21.35760619 27.91736463 -6.80859375 8 C-2.21551724 2.21551724 -2.21551724 2.21551724 0 0 Z " fill="#1D5DA0" transform="translate(28,35)"/>
<path d="M0 0 C4.44196087 3.41295986 7.61122746 6.83240873 10.5625 11.625 C10.94817139 12.2425415 11.33384277 12.86008301 11.73120117 13.49633789 C24.52232018 34.35159889 28.07391114 58.39936384 22.9765625 82.21875 C19.1265341 97.12605997 12.98316613 109.32766698 3 121 C2.38382812 121.76183594 1.76765625 122.52367187 1.1328125 123.30859375 C-11.22291284 138.09957616 -29.75380207 147.67355682 -48.4375 151.75 C-53.95720487 152.13734771 -59.46945774 152.07484944 -65 152 C-65 151.67 -65 151.34 -65 151 C-64.06800781 150.90203125 -63.13601562 150.8040625 -62.17578125 150.703125 C-48.82845668 149.13761474 -37.72649046 146.56114285 -27 138 C-26.030625 137.278125 -25.06125 136.55625 -24.0625 135.8125 C-21.95709936 134.11784717 -21.95709936 134.11784717 -20.671875 132.0234375 C-16.71744654 127.23747035 -8.95064822 125.62638402 -3 125 C-2.938125 124.401875 -2.87625 123.80375 -2.8125 123.1875 C-2 121 -2 121 0.33203125 119.6484375 C10.14692971 113.58418106 14.91719379 98.9190886 18.203125 88.46875 C19 86 19 86 20 84 C23.77361768 56.46318767 21.57617223 32.6716828 6 9 C4.07720988 6.58386241 2.05554812 4.30622472 0 2 C0 1.34 0 0.68 0 0 Z " fill="#287ED4" transform="translate(163,34)"/>
<path d="M0 0 C3.22370429 1.0745681 3.74568921 1.6055631 5.8125 4.125 C10.01673867 9.09446412 14.46880761 13.81239257 18.93676758 18.54345703 C28.36604439 28.57359988 28.36604439 28.57359988 30 32.25 C31.44393261 34.77688207 33.30647069 35.1494118 36 36 C36 36.99 36 37.98 36 39 C38.97 39.33 41.94 39.66 45 40 C45 41.66666667 45 43.33333333 45 45 C45.66 45 46.32 45 47 45 C47.495 44.01 47.495 44.01 48 43 C48.66 43 49.32 43 50 43 C49.67 44.65 49.34 46.3 49 48 C45.32646732 47.67586476 44.00775171 47.00689041 41.1875 44.5 C37.56195483 41.29494332 34.82476192 40.92341648 30 41 C28.31089682 42.30479347 26.65011296 43.64623386 25 45 C21.76640941 47.01834623 18.44610355 48.88004006 15.125 50.75 C13.73510864 51.53636841 13.73510864 51.53636841 12.31713867 52.33862305 C9.54868242 53.89953827 6.77535904 55.45139715 4 57 C3.20384277 57.44617676 2.40768555 57.89235352 1.58740234 58.35205078 C-0.49858626 59.51620675 -2.59090978 60.66757214 -4.6875 61.8125 C-5.30415527 62.15571289 -5.92081055 62.49892578 -6.55615234 62.85253906 C-8.00517286 63.6316002 -9.49937039 64.32567999 -11 65 C-11.66 64.67 -12.32 64.34 -13 64 C-4.35409523 57.79962023 4.3330435 51.68127618 13.25 45.875 C13.95181396 45.41440186 14.65362793 44.95380371 15.37670898 44.47924805 C23.86784502 39 23.86784502 39 29 39 C29 38.01 29 37.02 29 36 C28.12311523 35.87906982 27.24623047 35.75813965 26.34277344 35.63354492 C15.98007305 33.66953619 6.16381734 27.77244828 -3.25 23.1875 C-4.49594836 22.58368427 -5.74204146 21.98016712 -6.98828125 21.37695312 C-9.9936154 19.92088038 -12.997476 18.46185627 -16 17 C-12.19999531 15.73333177 -11.38494268 16.47150915 -7.84375 18.16796875 C-6.30847656 18.89016602 -6.30847656 18.89016602 -4.7421875 19.62695312 C-3.13730469 20.39942383 -3.13730469 20.39942383 -1.5 21.1875 C6.22042749 24.8705079 13.89874113 28.23756727 22 31 C18.34772414 24.91055907 14.2953427 19.36351984 9.875 13.8125 C2.45672766 4.4741135 2.45672766 4.4741135 0 0 Z " fill="#0E0E77" transform="translate(64,57)"/>
<path d="M0 0 C5.14794357 -0.10752885 10.03053588 0.28735285 15.125 1 C20.99801104 1.81234171 26.21794901 2.49214219 32 1 C36 1 36 1 39 3 C39.33 2.67 39.66 2.34 40 2 C41.66014616 1.63557767 43.32706064 1.30027117 45 1 C45.66 2.32 46.32 3.64 47 5 C44.23071465 6.5437192 42.12844877 7.26688869 38.96582031 7.41064453 C38.18531311 7.45053497 37.40480591 7.49042542 36.60064697 7.53152466 C35.76821472 7.56494965 34.93578247 7.59837463 34.078125 7.6328125 C33.21813904 7.67437469 32.35815308 7.71593689 31.47210693 7.75875854 C28.7317218 7.88926345 25.99096161 8.00728999 23.25 8.125 C21.38928453 8.21141695 19.52860663 8.29864703 17.66796875 8.38671875 C13.11236105 8.60057539 8.55637703 8.80324448 4 9 C3.67 8.01 3.34 7.02 3 6 C1.35 6 -0.3 6 -2 6 C-1.34 4.02 -0.68 2.04 0 0 Z " fill="#C0C0CE" transform="translate(66,133)"/>
<path d="M0 0 C1.58379312 1.34305657 3.12017765 2.74188037 4.640625 4.15625 C0.69125138 4.15625 -0.51492177 2.74238344 -3.609375 0.34375 C-7.76066905 -2.75341965 -11.48697843 -5.01660129 -16.359375 -6.84375 C-17.11831055 -7.21943115 -17.87724609 -7.5951123 -18.65917969 -7.98217773 C-25.71196874 -11.46588778 -32.34480781 -13.13275636 -40.109375 -14.21875 C-41.25027588 -14.3852002 -42.39117676 -14.55165039 -43.56665039 -14.72314453 C-52.07303663 -15.87231327 -59.84131481 -16.1542208 -68.359375 -14.84375 C-69.28878906 -14.72773438 -70.21820313 -14.61171875 -71.17578125 -14.4921875 C-87.40583185 -12.08248566 -101.81399315 -5.313723 -114.359375 5.15625 C-115.019375 4.82625 -115.679375 4.49625 -116.359375 4.15625 C-107.10251765 -5.04311135 -95.70660563 -10.91248337 -83.359375 -14.84375 C-82.55628906 -15.12992188 -81.75320312 -15.41609375 -80.92578125 -15.7109375 C-54.35485064 -25.12054193 -21.73071021 -16.9816146 0 0 Z " fill="#2476C8" transform="translate(152.359375,22.84375)"/>
<path d="M0 0 C0 3.8801042 -1.25171273 4.91089207 -3.625 7.9375 C-12.18966896 19.46802605 -18.74249141 33.12476724 -18.00390625 47.77734375 C-17.99988614 50.06478377 -18.39001721 51.76182039 -19.0625 53.9375 C-20.48752849 59.08796011 -19.72844437 63.76734125 -19 69 C-18.87431641 70.03592285 -18.87431641 70.03592285 -18.74609375 71.09277344 C-16.91490951 86.10977374 -13.41237417 99.25397853 -5 112 C-5.33 112.66 -5.66 113.32 -6 114 C-21.31292534 92.03130467 -26.09687003 67.78152367 -21.75 41.3984375 C-18.38513562 26.15139578 -11.12196133 11.12196133 0 0 Z " fill="#2578CA" transform="translate(28,35)"/>
<path d="M0 0 C0.99 0.495 0.99 0.495 2 1 C1.17756798 7.08599695 -4.47307855 10.42549579 -9 14 C-16.86801915 19.49387871 -25.00828985 23.68328223 -34 27 C-35.23943359 27.46212891 -35.23943359 27.46212891 -36.50390625 27.93359375 C-45.31519641 31.04959991 -53.72688784 31.12550077 -63 31 C-63 30.67 -63 30.34 -63 30 C-62.06800781 29.90203125 -61.13601562 29.8040625 -60.17578125 29.703125 C-46.82845668 28.13761474 -35.72649046 25.56114285 -25 17 C-24.030625 16.278125 -23.06125 15.55625 -22.0625 14.8125 C-19.95709936 13.11784717 -19.95709936 13.11784717 -18.671875 11.0234375 C-14.71744654 6.23747035 -6.95064822 4.62638402 -1 4 C-0.67 2.68 -0.34 1.36 0 0 Z " fill="#1D5EA1" transform="translate(161,155)"/>
<path d="M0 0 C3.22370429 1.0745681 3.74568921 1.6055631 5.8125 4.125 C10.01673867 9.09446412 14.46880761 13.81239257 18.93676758 18.54345703 C29.21200402 29.47346698 29.21200402 29.47346698 31 35 C30.67 35.33 30.34 35.66 30 36 C18.33871511 35.48172067 7.0199745 28.18943495 -3.25 23.1875 C-4.49594836 22.58368427 -5.74204146 21.98016712 -6.98828125 21.37695312 C-9.9936154 19.92088038 -12.997476 18.46185627 -16 17 C-12.19999531 15.73333177 -11.38494268 16.47150915 -7.84375 18.16796875 C-6.30847656 18.89016602 -6.30847656 18.89016602 -4.7421875 19.62695312 C-3.13730469 20.39942383 -3.13730469 20.39942383 -1.5 21.1875 C6.22042749 24.8705079 13.89874113 28.23756727 22 31 C18.34772414 24.91055907 14.2953427 19.36351984 9.875 13.8125 C2.45672766 4.4741135 2.45672766 4.4741135 0 0 Z " fill="#14147A" transform="translate(64,57)"/>
<path d="M0 0 C-0.68964844 0.40089844 -1.37929687 0.80179688 -2.08984375 1.21484375 C-7.15270521 4.27756241 -11.44004111 7.2380828 -15.4375 11.625 C-19.55318989 15.98452789 -23.60533539 17.82526376 -29.1796875 19.87109375 C-32.98115105 21.39273221 -35.808386 23.46121614 -39 26 C-39.66 25.67 -40.32 25.34 -41 25 C-40.52525937 20.7273343 -38.15665032 18.726198 -35 16 C-34.22140625 15.69835937 -33.4428125 15.39671875 -32.640625 15.0859375 C-29.64831902 13.8553738 -27.54013141 12.2480302 -25 10.25 C-6.72561308 -3.36280654 -6.72561308 -3.36280654 0 0 Z " fill="#1E5FA2" transform="translate(69,12)"/>
<path d="M0 0 C5.51294012 0.68911751 11.5963406 1.69966533 15.7265625 5.65234375 C17.50778557 8.93613229 17.29048456 11.54255573 17.1875 15.25 C17.16042969 16.51328125 17.13335937 17.7765625 17.10546875 19.078125 C17.07066406 20.04234375 17.03585938 21.0065625 17 22 C16.67 21.34 16.34 20.68 16 20 C14.02 20 12.04 20 10 20 C9.896875 18.88625 9.79375 17.7725 9.6875 16.625 C9.460625 15.42875 9.23375 14.2325 9 13 C8.01 12.34 7.02 11.68 6 11 C4.8125 8.375 4.8125 8.375 4 6 C3.01 6 2.02 6 1 6 C0.67 4.02 0.34 2.04 0 0 Z " fill="#18477F" transform="translate(153,38)"/>
<path d="M0 0 C0.66 0.66 1.32 1.32 2 2 C2.33 1.67 2.66 1.34 3 1 C4.99958364 0.95919217 7.00045254 0.95745644 9 1 C9.33 2.65 9.66 4.3 10 6 C9.01 6.66 8.02 7.32 7 8 C8.32 8.66 9.64 9.32 11 10 C11 10.66 11 11.32 11 12 C8.56288386 12.19484938 6.12562602 12.38115178 3.6875 12.5625 C2.99720703 12.61857422 2.30691406 12.67464844 1.59570312 12.73242188 C-1.62512274 12.96581505 -3.90327345 13.03224218 -7 12 C-7 11.34 -7 10.68 -7 10 C-6.34 10 -5.68 10 -5 10 C-5 7.69 -5 5.38 -5 3 C-5.66 2.67 -6.32 2.34 -7 2 C-4 0 -4 0 0 0 Z " fill="#CECED0" transform="translate(95,21)"/>
<path d="M0 0 C0.33 0 0.66 0 1 0 C0.88506243 1.89646998 0.75760358 3.79218332 0.625 5.6875 C0.55539063 6.74324219 0.48578125 7.79898438 0.4140625 8.88671875 C0.00387015 11.97090087 -0.50982415 14.26964491 -2 17 C-5.625 18.125 -5.625 18.125 -7.76953125 18.52734375 C-10.09348133 19.01980953 -12.11905998 19.78336484 -14.3125 20.6875 C-18 22 -18 22 -21 21 C-17.60740594 17.5520919 -14.1145392 14.2759878 -10.5 11.0625 C-6.62854061 7.57192543 -3.22289905 4.0823388 0 0 Z " fill="#154680" transform="translate(162,143)"/>
<path d="M0 0 C4.70129022 3.15127355 8.50004293 6.45303006 12.125 10.8125 C25.62364301 26.23952058 45.63441558 32.0451208 65.4375 33.5625 C66.30246094 33.60503906 67.16742188 33.64757812 68.05859375 33.69140625 C69.01958984 33.84416016 69.01958984 33.84416016 70 34 C70.33 34.66 70.66 35.32 71 36 C44.67172255 37.08033965 25.44985638 26.75178365 6.41015625 9.39453125 C4.04757977 7.04727131 1.95362138 4.69699471 0 2 C0 1.34 0 0.68 0 0 Z " fill="#287FD6" transform="translate(24,150)"/>
<path d="M0 0 C4.71546204 1.66037396 7.91188512 4.1802989 11.71875 7.34375 C14.07310959 9.05307957 16.30812758 9.93753626 19 11 C20.99181978 13.16254719 22.59401165 15.14353142 23.85546875 17.8046875 C25.34844023 20.66833929 27.20807717 23.15287875 29.125 25.75 C29.84945312 26.73484375 30.57390625 27.7196875 31.3203125 28.734375 C32.15175781 29.85585938 32.15175781 29.85585938 33 31 C32.67 31.66 32.34 32.32 32 33 C31.57589844 32.39671875 31.15179688 31.7934375 30.71484375 31.171875 C26.13756003 24.93469718 22.42668988 22.05139287 15.4375 18.8125 C12.28086241 16.46525666 10.69981696 13.66611453 8.625 10.359375 C6.51403667 7.29441863 4.03021432 4.84643417 1.3203125 2.3125 C0.88460937 1.879375 0.44890625 1.44625 0 1 C0 0.67 0 0.34 0 0 Z " fill="#1E5FA3" transform="translate(141,18)"/>
<path d="M0 0 C5.45454545 0.45454545 5.45454545 0.45454545 8 3 C8.44921875 5.3125 8.44921875 5.3125 8.6875 8 C8.77386719 8.886875 8.86023438 9.77375 8.94921875 10.6875 C9 13 9 13 8 15 C6.54207116 15.05399736 5.08357288 15.09279177 3.625 15.125 C2.81289062 15.14820313 2.00078125 15.17140625 1.1640625 15.1953125 C-1 15 -1 15 -3 13 C-3.046875 10.46875 -3.046875 10.46875 -2.75 7.5 C-2.66234375 6.5203125 -2.5746875 5.540625 -2.484375 4.53125 C-2 2 -2 2 0 0 Z " fill="#3F3F40" transform="translate(152,122)"/>
<path d="M0 0 C-0.33 0.78375 -0.66 1.5675 -1 2.375 C-2.11866511 4.84332497 -2.11866511 4.84332497 -2 7 C-3.32 7.33 -4.64 7.66 -6 8 C-6.061875 8.763125 -6.12375 9.52625 -6.1875 10.3125 C-7 13 -7 13 -9.375 14.6875 C-10.24125 15.120625 -11.1075 15.55375 -12 16 C-12.99 16.66 -13.98 17.32 -15 18 C-15.08097324 15.72975032 -15.13917704 13.45867925 -15.1875 11.1875 C-15.22230469 9.92292969 -15.25710937 8.65835938 -15.29296875 7.35546875 C-15 4 -15 4 -13.62890625 2.09375 C-9.56660676 -0.63393311 -4.71016359 -0.09235615 0 0 Z " fill="#164780" transform="translate(41,37)"/>
<path d="M0 0 C0.99 0.33 1.98 0.66 3 1 C3.66015625 2.8125 3.66015625 2.8125 4.0625 5 C4.42700873 7.14055297 4.42700873 7.14055297 5 9 C5.66 9.33 6.32 9.66 7 10 C7 7.03 7 4.06 7 1 C8.65 0.67 10.3 0.34 12 0 C12.33 3.96 12.66 7.92 13 12 C7.72 12 2.44 12 -3 12 C-3 11.34 -3 10.68 -3 10 C-2.34 10 -1.68 10 -1 10 C-1.01160156 9.36191406 -1.02320312 8.72382812 -1.03515625 8.06640625 C-1.04417969 7.24011719 -1.05320312 6.41382813 -1.0625 5.5625 C-1.07410156 4.73878906 -1.08570312 3.91507813 -1.09765625 3.06640625 C-1 1 -1 1 0 0 Z " fill="#6F6F70" transform="translate(128,32)"/>
<path d="M0 0 C1.32 0.33 2.64 0.66 4 1 C3.0409375 1.433125 3.0409375 1.433125 2.0625 1.875 C-0.15206079 2.82823451 -0.15206079 2.82823451 -1 5 C-0.05125 4.95875 0.8975 4.9175 1.875 4.875 C5 5 5 5 7 7 C7.38286803 10.73296326 7.14915785 11.77626323 5 15 C4.01 15 3.02 15 2 15 C2 15.66 2 16.32 2 17 C-0.67938569 15.66030715 -2.13291495 14.36497439 -4 12 C-4.6338947 7.64197392 -4.49760663 5.73085974 -2 2.0625 C-1.34 1.381875 -0.68 0.70125 0 0 Z " fill="#707071" transform="translate(96,155)"/>
<path d="M0 0 C0.763125 -0.01095703 1.52625 -0.02191406 2.3125 -0.03320312 C4.5390625 -0.00390625 4.5390625 -0.00390625 8.375 0.5625 C9.365 1.8825 10.355 3.2025 11.375 4.5625 C8.075 4.8925 4.775 5.2225 1.375 5.5625 C1.045 6.8825 0.715 8.2025 0.375 9.5625 C-0.285 9.2325 -0.945 8.9025 -1.625 8.5625 C-1.625 7.5725 -1.625 6.5825 -1.625 5.5625 C-5.585 5.5625 -9.545 5.5625 -13.625 5.5625 C-9.39737542 0.24849381 -6.38597784 -0.2016051 0 0 Z " fill="#123E77" transform="translate(96.625,10.4375)"/>
<path d="M0 0 C1.32 0 2.64 0 4 0 C4 0.66 4 1.32 4 2 C8.95 2 13.9 2 19 2 C19.33 3.65 19.66 5.3 20 7 C15.05 7 10.1 7 5 7 C4.67 5.68 4.34 4.36 4 3 C3.01 3.495 3.01 3.495 2 4 C2.33 4.66 2.66 5.32 3 6 C1.68 5.67 0.36 5.34 -1 5 C-0.67 3.35 -0.34 1.7 0 0 Z " fill="#92929B" transform="translate(116,133)"/>
<path d="M0 0 C-2.75292169 1.83528113 -4.60370348 2.60416767 -7.71875 3.515625 C-9.10960815 3.93328125 -9.10960815 3.93328125 -10.52856445 4.359375 C-11.50913818 4.65328125 -12.48971191 4.9471875 -13.5 5.25 C-25.64219928 9.01411118 -35.20821392 13.82808964 -45 22 C-45.66 21.67 -46.32 21.34 -47 21 C-37.7881146 11.84533128 -26.33550637 5.82340328 -14 2 C-12.7625 1.5875 -11.525 1.175 -10.25 0.75 C-6.73593345 -0.06093843 -3.59438287 -0.1467095 0 0 Z " fill="#2E8EEB" transform="translate(83,6)"/>
<path d="M0 0 C4.44219247 3.41313781 7.61043557 6.83269621 10.5625 11.625 C10.94744629 12.23964111 11.33239258 12.85428223 11.72900391 13.48754883 C18.09476596 23.84432956 23.82917736 35.56233961 23 48 C21.39305879 45.0459634 20.47881914 42.26237095 19.6875 39 C15.98488877 25.12902359 9.54799518 12.71238483 0 2 C0 1.34 0 0.68 0 0 Z " fill="#2B87E3" transform="translate(163,34)"/>
<path d="M0 0 C4.28097565 0.65084098 7.80336441 2.13221689 11.7265625 3.94140625 C12.35605804 4.22853989 12.98555359 4.51567352 13.63412476 4.81150818 C16.31249868 6.03328856 18.98519814 7.26726002 21.65820312 8.50073242 C23.61642582 9.40220812 25.57760989 10.2969855 27.5390625 11.19140625 C28.70646973 11.72967041 29.87387695 12.26793457 31.07666016 12.82250977 C33.93852909 14.18681005 33.93852909 14.18681005 37 14 C37.33 13.34 37.66 12.68 38 12 C40.31 14.31 42.62 16.62 45 19 C40.35679983 20.16080004 38.41713737 19.23131326 34.3125 17.3125 C33.64347656 17.01013428 32.97445312 16.70776855 32.28515625 16.39624023 C21.44019497 11.44606342 10.72450726 6.20446483 0 1 C0 0.67 0 0.34 0 0 Z " fill="#303081" transform="translate(48,73)"/>
<path d="M0 0 C2.5625 0.3125 2.5625 0.3125 4.375 1.5 C5.98775784 3.96157776 5.9959014 5.42315736 5.5625 8.3125 C4.375 10.125 4.375 10.125 2.5625 11.3125 C0 11.625 0 11.625 -2.4375 11.3125 C-4.4375 9.3125 -4.4375 9.3125 -4.6875 5.8125 C-4.40166115 1.81075612 -4.09542045 0.5250539 0 0 Z " fill="#252525" transform="translate(154.4375,53.6875)"/>
<path d="M0 0 C5.69640709 -0.30020591 10.18629826 0.65734552 15.5625 2.5 C16.34608887 2.76627197 17.12967773 3.03254395 17.93701172 3.30688477 C28.87718559 7.19185811 38.71140326 12.76288523 47 21 C43.05062638 21 41.84445323 19.58613344 38.75 17.1875 C34.59870595 14.09033035 30.87239657 11.82714871 26 10 C24.33278646 9.18862275 22.6661838 8.37598974 21 7.5625 C14.24680375 4.45433436 7.199285 2.73909854 0 1 C0 0.67 0 0.34 0 0 Z " fill="#2B85DF" transform="translate(110,6)"/>
<path d="M0 0 C0.66 0.33 1.32 0.66 2 1 C-14.17738899 13.17690668 -30.88555911 18.27222552 -51 18 C-51 17.67 -51 17.34 -51 17 C-50.14921875 16.92523438 -49.2984375 16.85046875 -48.421875 16.7734375 C-31.69710895 14.95862246 -13.46562188 10.56677273 0 0 Z " fill="#287DD3" transform="translate(149,168)"/>
<path d="M0 0 C8.58 0 17.16 0 26 0 C22 4 22 4 19 5 C16.9140625 4.84375 16.9140625 4.84375 14.625 4.5 C11.71843298 4.10493264 10.11906921 3.96752658 7.25 4.75 C6.5075 4.8325 5.765 4.915 5 5 C3.35 3.35 1.7 1.7 0 0 Z " fill="#154582" transform="translate(84,176)"/>
<path d="M0 0 C0.33 0 0.66 0 1 0 C1.33 8.91 1.66 17.82 2 27 C-3 22 -3 22 -4 18 C-3.80865842 15.99091343 -3.61121208 13.97930246 -3.28125 11.98828125 C-2.91121556 9.79770779 -2.91121556 9.79770779 -3.125 6.75 C-2.97836105 3.523943 -2.21068857 2.29911611 0 0 Z " fill="#134078" transform="translate(15,83)"/>
<path d="M0 0 C0.66 0 1.32 0 2 0 C2.061875 0.928125 2.061875 0.928125 2.125 1.875 C2.41375 2.57625 2.7025 3.2775 3 4 C5.99615946 5.3045656 5.99615946 5.3045656 9 6 C9 6.66 9 7.32 9 8 C7.35 8.33 5.7 8.66 4 9 C4 9.66 4 10.32 4 11 C4.78375 11.12375 5.5675 11.2475 6.375 11.375 C9 12 9 12 11 14 C10.625 16.125 10.625 16.125 10 18 C10 17.01 10 16.02 10 15 C9.34 15 8.68 15 8 15 C7.67 15.99 7.34 16.98 7 18 C6.01 17.67 5.02 17.34 4 17 C4.33 15.68 4.66 14.36 5 13 C3.88625 12.855625 2.7725 12.71125 1.625 12.5625 C-2 12 -2 12 -4 11 C-4.625 8.9375 -4.625 8.9375 -5 7 C-4.34 7 -3.68 7 -3 7 C-2.01 8.485 -2.01 8.485 -1 10 C1.05925139 10.72382467 1.05925139 10.72382467 3 11 C2.2575 9.948125 2.2575 9.948125 1.5 8.875 C-0.1936681 5.62880281 -0.25162315 3.60659844 0 0 Z " fill="#B2B2DA" transform="translate(104,85)"/>
<path d="M0 0 C3.3 0 6.6 0 10 0 C10.6715567 5.37245364 9.00803315 8.05380731 5.99609375 12.265625 C5.66738281 12.83796875 5.33867187 13.4103125 5 14 C5.33 14.66 5.66 15.32 6 16 C5.34 16 4.68 16 4 16 C3.67 16.99 3.34 17.98 3 19 C3 17.68 3 16.36 3 15 C2.34 15 1.68 15 1 15 C2.31061591 10.76570244 3.94356259 6.92592596 6 3 C4.02 3.33 2.04 3.66 0 4 C0 2.68 0 1.36 0 0 Z " fill="#979797" transform="translate(130,146)"/>
<path d="M0 0 C0.33 0 0.66 0 1 0 C2.05358386 5.167578 2.14974895 10.12822349 2.125 15.375 C2.12886719 16.18710938 2.13273438 16.99921875 2.13671875 17.8359375 C2.12847864 22.97776555 1.73703454 27.91095197 1 33 C-0.485 33.495 -0.485 33.495 -2 34 C-2.08949077 29.34647994 -1.92914716 24.82349815 -1.5 20.1875 C-1.04358927 15.19233813 -0.94472642 10.29008156 -1.0625 5.27734375 C-1 3 -1 3 0 0 Z " fill="#2373C2" transform="translate(186,79)"/>
<path d="M0 0 C5 5 5 5 5.26953125 7.46484375 C5.11871094 8.28082031 4.96789062 9.09679687 4.8125 9.9375 C4.32122497 12.94320996 4.01700219 15.30603937 4.1875 18.375 C4 21 4 21 0 25 C0 16.75 0 8.5 0 0 Z " fill="#14427C" transform="translate(177,83)"/>
<path d="M0 0 C0.598125 0.185625 1.19625 0.37125 1.8125 0.5625 C4.16408762 1.22093687 4.16408762 1.22093687 7 0 C7.99 0.66 8.98 1.32 10 2 C10.33 1.67 10.66 1.34 11 1 C12.66014616 0.63557767 14.32706064 0.30027117 16 0 C16.66 1.32 17.32 2.64 18 4 C14.21332311 6.55698285 10.5877666 6.03499684 6.25 5.625 C5.55261719 5.56828125 4.85523437 5.5115625 4.13671875 5.453125 C2.42360688 5.31232128 0.71165389 5.15754028 -1 5 C-1 2 -1 2 0 0 Z " fill="#888893" transform="translate(95,134)"/>
<path d="M0 0 C0 2.64 0 5.28 0 8 C0.66 8 1.32 8 2 8 C2 8.66 2 9.32 2 10 C1.34 10 0.68 10 0 10 C0 11.32 0 12.64 0 14 C-0.99 14 -1.98 14 -3 14 C-3 12.68 -3 11.36 -3 10 C-4.98 10 -6.96 10 -9 10 C-7.6834994 5.81113445 -4.97532335 0 0 0 Z " fill="#2D2D2D" transform="translate(41,124)"/>
<path d="M0 0 C0.33 0 0.66 0 1 0 C1 1.65 1 3.3 1 5 C2.32 5.66 3.64 6.32 5 7 C4.01 8.485 4.01 8.485 3 10 C2.34 10 1.68 10 1 10 C1 11.65 1 13.3 1 15 C1.66 15 2.32 15 3 15 C2.67 17.64 2.34 20.28 2 23 C2.66 23 3.32 23 4 23 C4 25.64 4 28.28 4 31 C4.66 31 5.32 31 6 31 C6.33 33.64 6.66 36.28 7 39 C3.4486848 36.3136183 2.77350235 32.63202912 1.8125 28.5 C1.6381543 27.76402588 1.46380859 27.02805176 1.28417969 26.26977539 C-0.58452641 17.55067066 -0.35032343 8.86512907 0 0 Z " fill="#285B90" transform="translate(16,88)"/>
<path d="M0 0 C2.00720923 0.28674418 4.0085944 0.61866701 6 1 C5.979375 2.051875 5.95875 3.10375 5.9375 4.1875 C5.98896802 7.32704904 6.26517187 9.96883396 7 13 C6.01 13 5.02 13 4 13 C4 12.01 4 11.02 4 10 C1.05763218 7.78831775 1.05763218 7.78831775 -2 6 C-1.125 1.125 -1.125 1.125 0 0 Z " fill="#676768" transform="translate(152,122)"/>
<path d="M0 0 C1.33333333 0.66666667 2.66666667 1.33333333 4 2 C4.99 2.433125 5.98 2.86625 7 3.3125 C10.76774258 5.4318552 12.9994664 7.8841927 14.8515625 11.80078125 C16.34719246 14.66486175 18.20710018 17.15155508 20.125 19.75 C20.84945312 20.73484375 21.57390625 21.7196875 22.3203125 22.734375 C23.15175781 23.85585938 23.15175781 23.85585938 24 25 C23.67 25.66 23.34 26.32 23 27 C21.81165426 25.5215127 20.62438266 24.04216207 19.4375 22.5625 C18.70402344 21.64984375 17.97054687 20.7371875 17.21484375 19.796875 C15.26348474 17.33272499 13.3801066 14.83088759 11.5 12.3125 C8.54227002 8.46676794 5.24984989 5.38317866 1.50390625 2.3125 C1.00761719 1.879375 0.51132813 1.44625 0 1 C0 0.67 0 0.34 0 0 Z " fill="#226CB7" transform="translate(150,24)"/>
<path d="M0 0 C0.99 0.99 1.98 1.98 3 3 C3.33 2.34 3.66 1.68 4 1 C4.66 1 5.32 1 6 1 C6.33 1.99 6.66 2.98 7 4 C11.95 4.33 16.9 4.66 22 5 C22 5.33 22 5.66 22 6 C18.91722144 6.1974877 15.8337715 6.38123332 12.75 6.5625 C11.87730469 6.61857422 11.00460938 6.67464844 10.10546875 6.73242188 C9.26113281 6.78076172 8.41679688 6.82910156 7.546875 6.87890625 C6.77182617 6.9260376 5.99677734 6.97316895 5.19824219 7.02172852 C2.95331976 6.99953859 1.16433775 6.55970583 -1 6 C-2.44098431 5.92233916 -3.88508629 5.89203633 -5.328125 5.90234375 C-6.52695313 5.90717773 -6.52695313 5.90717773 -7.75 5.91210938 C-8.575 5.92048828 -9.4 5.92886719 -10.25 5.9375 C-11.09046875 5.94201172 -11.9309375 5.94652344 -12.796875 5.95117188 C-14.86461401 5.96292039 -16.93231624 5.98085478 -19 6 C-19 5.67 -19 5.34 -19 5 C-17.87980469 4.97421875 -16.75960937 4.9484375 -15.60546875 4.921875 C-14.13277354 4.86559365 -12.6601188 4.80824632 -11.1875 4.75 C-10.44951172 4.73582031 -9.71152344 4.72164062 -8.95117188 4.70703125 C-4.47562582 4.53490953 -4.47562582 4.53490953 -0.98828125 1.953125 C-0.66214844 1.30859375 -0.33601563 0.6640625 0 0 Z " fill="#CDCDDC" transform="translate(114,135)"/>
<path d="M0 0 C0 1.32 0 2.64 0 4 C-5.52967941 4.71033431 -10.49983036 5.30267176 -16 4 C-16 2.68 -16 1.36 -16 0 C-10.49983036 -1.30267176 -5.52967941 -0.71033431 0 0 Z " fill="#707079" transform="translate(92,135)"/>
<path d="M0 0 C1.32 0.33 2.64 0.66 4 1 C4 1.66 4 2.32 4 3 C5.65 3 7.3 3 9 3 C9 2.34 9 1.68 9 1 C11.64 1.33 14.28 1.66 17 2 C17 2.66 17 3.32 17 4 C6.44 4 -4.12 4 -15 4 C-15 3.34 -15 2.68 -15 2 C-10.545 1.505 -10.545 1.505 -6 1 C-6 1.66 -6 2.32 -6 3 C-4.02 3 -2.04 3 0 3 C0 2.01 0 1.02 0 0 Z " fill="#275F9A" transform="translate(95,172)"/>
<path d="M0 0 C2.83181098 -0.43566323 4.36063578 -0.39684676 6.8125 1.125 C8.60767534 3.95948739 8.52651051 5.70930929 8 9 C5.5 11.875 5.5 11.875 3 14 C2.01 13.67 1.02 13.34 0 13 C0.66 12.67 1.32 12.34 2 12 C4.17282569 10.23173046 4.17282569 10.23173046 4.265625 8.01953125 C4.25140615 6.01111857 4.13142025 4.00415878 4 2 C3.34 2 2.68 2 2 2 C1.83312552 4.41645782 1.83312552 4.41645782 2 7 C2.66 7.66 3.32 8.32 4 9 C2.35 8.67 0.7 8.34 -1 8 C-1.625 5.6875 -1.625 5.6875 -2 3 C-1.34 2.01 -0.68 1.02 0 0 Z " fill="#2A2A2A" transform="translate(162,90)"/>
<path d="M0 0 C3.875 3.75 3.875 3.75 5 6 C5.66 5.34 6.32 4.68 7 4 C9.32275177 3.59952556 11.65739357 3.2602896 14 3 C14 2.01 14 1.02 14 0 C14.66 0 15.32 0 16 0 C16 2.64 16 5.28 16 8 C12.04 8 8.08 8 4 8 C3.67 7.01 3.34 6.02 3 5 C2.34 5 1.68 5 1 5 C0.67 5.99 0.34 6.98 0 8 C-1.43088528 5.13822943 -0.59991697 3.06624227 0 0 Z " fill="#D2D8F2" transform="translate(70,55)"/>
<path d="M0 0 C0 3.8801042 -1.25171273 4.91089207 -3.625 7.9375 C-9.39455332 15.64725709 -13.3667978 24.11883906 -17 33 C-18.27174368 29.13281777 -17.45097602 27.15702693 -15.64892578 23.51611328 C-15.29040527 22.8301709 -14.93188477 22.14422852 -14.5625 21.4375 C-14.20140137 20.73093262 -13.84030273 20.02436523 -13.46826172 19.29638672 C-9.81465896 12.32908798 -5.58964215 5.58964215 0 0 Z " fill="#2C89E5" transform="translate(28,35)"/>
<path d="M0 0 C1.98 0 3.96 0 6 0 C6.33 1.65 6.66 3.3 7 5 C6.01 5.66 5.02 6.32 4 7 C5.32 7.66 6.64 8.32 8 9 C8 9.66 8 10.32 8 11 C4.7 11 1.4 11 -2 11 C0 7 0 7 3 5 C3.72382467 2.94074861 3.72382467 2.94074861 4 1 C3.01 1 2.02 1 1 1 C1 1.99 1 2.98 1 4 C0.01 4 -0.98 4 -2 4 C-1.34 2.68 -0.68 1.36 0 0 Z " fill="#4A4A4B" transform="translate(98,22)"/>
<path d="M0 0 C0.33 0.66 0.66 1.32 1 2 C-13.06350027 20.81680623 -13.06350027 20.81680623 -21 22 C-19.59257936 18.48144841 -18.33533477 17.61387166 -15 16 C-14.67 15.01 -14.34 14.02 -14 13 C-13.360625 12.87625 -12.72125 12.7525 -12.0625 12.625 C-11.381875 12.41875 -10.70125 12.2125 -10 12 C-9.690625 11.21625 -9.38125 10.4325 -9.0625 9.625 C-7.71355957 6.29232365 -6.0328066 5.7558354 -3 4 C-3 3.01 -3 2.02 -3 1 C-2.01 0.67 -1.02 0.34 0 0 Z " fill="#3277BF" transform="translate(162,140)"/>
<path d="M0 0 C3.53729241 2.73145952 4.48657029 6.62287551 5.875 10.6875 C7.53635621 15.37671863 9.168704 19.70252469 11.9375 23.875 C12.618125 24.90625 13.29875 25.9375 14 27 C13.67 27.66 13.34 28.32 13 29 C-0 10.15384615 -0 10.15384615 0 0 Z " fill="#2D8BE7" transform="translate(9,120)"/>
<path d="M0 0 C1.98 0 3.96 0 6 0 C6.8441938 3.97977076 7.44687265 7.97007218 8 12 C4.77208445 14.1519437 3.71599191 14.20086443 0 14 C-0.66 12.68 -1.32 11.36 -2 10 C-1.01 10 -0.02 10 1 10 C1 10.66 1 11.32 1 12 C2.32 12 3.64 12 5 12 C4.42655063 9.13275314 4.1385485 8.1385485 2 6 C2.66 5.67 3.32 5.34 4 5 C4.65213292 2.97536745 4.65213292 2.97536745 5 1 C3.68 1 2.36 1 1 1 C1 1.99 1 2.98 1 4 C0.34 4 -0.32 4 -1 4 C-0.67 2.68 -0.34 1.36 0 0 Z " fill="#303030" transform="translate(23,89)"/>
<path d="M0 0 C2.375 -0.125 2.375 -0.125 5 0 C5.66 0.66 6.32 1.32 7 2 C6.64644564 4.26274788 6.02455574 5.95088852 5 8 C5.66 8.33 6.32 8.66 7 9 C7 9.66 7 10.32 7 11 C4.03 11 1.06 11 -2 11 C0 7 0 7 3 5 C3 4.01 3 3.02 3 2 C2.34 1.67 1.68 1.34 1 1 C1 1.99 1 2.98 1 4 C0.01 4 -0.98 4 -2 4 C-1.34 2.68 -0.68 1.36 0 0 Z " fill="#353535" transform="translate(35,52)"/>
<path d="M0 0 C1.13566406 0.14566406 2.27132812 0.29132813 3.44140625 0.44140625 C6.44633067 0.81826364 9.45202521 1.1576829 12.46484375 1.46484375 C13.20154297 1.54283203 13.93824219 1.62082031 14.69726562 1.70117188 C16.2174053 1.86153535 17.73829072 2.01495242 19.25976562 2.16210938 C21.18207932 2.3715377 23.09336707 2.67766316 25 3 C25.33 3.66 25.66 4.32 26 5 C17.40400201 5.22588024 9.39817396 4.91958262 1 3 C0.67 2.01 0.34 1.02 0 0 Z " fill="#2370BD" transform="translate(69,181)"/>
<path d="M0 0 C2.31 0 4.62 0 7 0 C7 0.66 7 1.32 7 2 C5.02 2 3.04 2 1 2 C1 2.99 1 3.98 1 5 C3.97 5.495 3.97 5.495 7 6 C7.6875 8.3125 7.6875 8.3125 8 11 C6.875 12.8125 6.875 12.8125 5 14 C2.3125 14.1875 2.3125 14.1875 0 14 C-0.33 12.68 -0.66 11.36 -1 10 C-0.34 10 0.32 10 1 10 C1 10.99 1 11.98 1 13 C1.99 12.67 2.98 12.34 4 12 C4.33 10.35 4.66 8.7 5 7 C3.35 7 1.7 7 0 7 C0 4.69 0 2.38 0 0 Z " fill="#292929" transform="translate(57,146)"/>
<path d="M0 0 C0.84046875 0.01804688 1.6809375 0.03609375 2.546875 0.0546875 C4.61507395 0.10169202 6.68268441 0.17343276 8.75 0.25 C1.72120402 4.00922122 -5.40033361 4.49919576 -13.25 4.25 C-9.61313898 -0.82561922 -5.70594104 -0.23180385 0 0 Z " fill="#1E60A5" transform="translate(112.25,180.75)"/>
<path d="M0 0 C0.66 0.66 1.32 1.32 2 2 C0.2984375 2.7115625 0.2984375 2.7115625 -1.4375 3.4375 C-3.92356771 4.82309508 -4.83169893 5.43261374 -5.65234375 8.19921875 C-5.79814368 9.78767063 -5.8926015 11.38186453 -5.9296875 12.9765625 C-6 15 -6 15 -7 17 C-7.66 17 -8.32 17 -9 17 C-9 15.68 -9 14.36 -9 13 C-8.34 13 -7.68 13 -7 13 C-7 12.34 -7 11.68 -7 11 C-7.66 11 -8.32 11 -9 11 C-9 8.36 -9 5.72 -9 3 C-9.66 2.67 -10.32 2.34 -11 2 C-9.68 2 -8.36 2 -7 2 C-6.67 2.66 -6.34 3.32 -6 4 C-4.02 2.68 -2.04 1.36 0 0 Z " fill="#A3A3B2" transform="translate(50,121)"/>
<path d="M0 0 C0.33 3.3 0.66 6.6 1 10 C-1.31 10 -3.62 10 -6 10 C-6 9.34 -6 8.68 -6 8 C-5.34 8 -4.68 8 -4 8 C-4 5.69 -4 3.38 -4 1 C-4.66 0.67 -5.32 0.34 -6 0 C-4 -1 -4 -1 0 0 Z " fill="#4C4C4C" transform="translate(64,33)"/>
<path d="M0 0 C0 1.66666667 0 3.33333333 0 5 C0.66 5 1.32 5 2 5 C2.33 4.34 2.66 3.68 3 3 C3.66 3 4.32 3 5 3 C4.67 4.65 4.34 6.3 4 8 C0.30962359 7.67437855 -1.0488084 6.95846094 -3.9375 4.5 C-7.17027083 1.86100341 -8.91158131 1.29202991 -13 1 C-13 0.67 -13 0.34 -13 0 C-8.38926889 -1.29676812 -4.66159911 -0.71109139 0 0 Z " fill="#17177D" transform="translate(109,97)"/>
<path d="M0 0 C0.33 3.3 0.66 6.6 1 10 C-0.98 10 -2.96 10 -5 10 C-4.67 7.36 -4.34 4.72 -4 2 C-4.66 2 -5.32 2 -6 2 C-6 1.34 -6 0.68 -6 0 C-3 -1 -3 -1 0 0 Z " fill="#4B4B4D" transform="translate(147,55)"/>
<path d="M0 0 C0.99 0.33 1.98 0.66 3 1 C3.99 0.67 4.98 0.34 6 0 C6.99 0.33 7.98 0.66 9 1 C8.67 2.32 8.34 3.64 8 5 C7.67 4.67 7.34 4.34 7 4 C7 4.99 7 5.98 7 7 C5.68 7 4.36 7 3 7 C3 6.34 3 5.68 3 5 C1.35 5 -0.3 5 -2 5 C-1.34 3.35 -0.68 1.7 0 0 Z " fill="#797980" transform="translate(66,134)"/>
<path d="M0 0 C2.55659906 4.94275818 3.11373522 8.60286149 3.0625 14.1875 C3.05347656 15.45980469 3.04445312 16.73210937 3.03515625 18.04296875 C3.02355469 19.01878906 3.01195312 19.99460937 3 21 C1.07463062 19.39441516 0.08925833 18.52230522 -0.34057617 16.00708008 C-0.32486572 15.26868896 -0.30915527 14.53029785 -0.29296875 13.76953125 C-0.28330078 12.96708984 -0.27363281 12.16464844 -0.26367188 11.33789062 C-0.23853516 10.50451172 -0.21339844 9.67113281 -0.1875 8.8125 C-0.17396484 7.96751953 -0.16042969 7.12253906 -0.14648438 6.25195312 C-0.11115799 4.16769616 -0.05735139 2.08376723 0 0 Z " fill="#1E61A4" transform="translate(182,71)"/>
<path d="M0 0 C0.33 0 0.66 0 1 0 C1.68767664 10.14323051 -1.32178907 19.05912122 -6 28 C-6.33 28 -6.66 28 -7 28 C-7 26.02 -7 24.04 -7 22 C-6.34 22 -5.68 22 -5 22 C-4.67 19.36 -4.34 16.72 -4 14 C-3.34 14 -2.68 14 -2 14 C-2 11.36 -2 8.72 -2 6 C-1.34 6 -0.68 6 0 6 C0 4.02 0 2.04 0 0 Z " fill="#2973C1" transform="translate(175,105)"/>
<path d="M0 0 C0.99 0.33 1.98 0.66 3 1 C2.80664062 1.73863281 2.61328125 2.47726563 2.4140625 3.23828125 C0.64748057 10.12095442 -0.82739579 16.99196542 -2 24 C-2.33 24 -2.66 24 -3 24 C-3.36741339 15.44062871 -2.73977333 8.13777913 0 0 Z " fill="#2880D8" transform="translate(9,66)"/>
<path d="M0 0 C-1.66089283 2.01797305 -2.57393468 2.91536044 -5.17651367 3.43237305 C-5.99869385 3.45855713 -6.82087402 3.48474121 -7.66796875 3.51171875 C-8.56064453 3.54716797 -9.45332031 3.58261719 -10.37304688 3.61914062 C-11.30181641 3.64169922 -12.23058594 3.66425781 -13.1875 3.6875 C-14.59805664 3.73874023 -14.59805664 3.73874023 -16.03710938 3.79101562 C-18.35795393 3.87348218 -20.67842148 3.94263403 -23 4 C-16.38642409 -0.40905061 -7.72822046 -0.25338428 0 0 Z " fill="#1F61A5" transform="translate(93,7)"/>
<path d="M0 0 C6.01224055 -0.37072797 10.72020673 0.90452909 16.375 2.875 C17.60283203 3.27912109 17.60283203 3.27912109 18.85546875 3.69140625 C24.8676792 5.73535839 24.8676792 5.73535839 26 8 C21.38578111 7.5193522 17.60885053 6.56761153 13.265625 4.83203125 C8.93952943 3.24330995 4.45775291 2.15541022 0 1 C0 0.67 0 0.34 0 0 Z " fill="#2F8FED" transform="translate(110,6)"/>
<path d="M0 0 C0.66 0.33 1.32 0.66 2 1 C1.31292969 1.60328125 0.62585937 2.2065625 -0.08203125 2.828125 C-0.98308594 3.62734375 -1.88414063 4.4265625 -2.8125 5.25 C-3.70582031 6.03890625 -4.59914063 6.8278125 -5.51953125 7.640625 C-7.64128225 9.65879445 -9.34254423 11.59916705 -11 14 C-11.66 13.67 -12.32 13.34 -13 13 C-12.52525937 8.7273343 -10.15665032 6.726198 -7 4 C-4.3125 2.8125 -4.3125 2.8125 -2 2 C-1.34 1.34 -0.68 0.68 0 0 Z " fill="#2472C0" transform="translate(41,24)"/>
<path d="M0 0 C8.44430279 0.51755404 16.68086307 1.4560881 25 3 C25 3.33 25 3.66 25 4 C21.20744328 3.91941151 17.41652908 3.80654683 13.625 3.6875 C12.54476562 3.66494141 11.46453125 3.64238281 10.3515625 3.61914062 C9.3203125 3.58369141 8.2890625 3.54824219 7.2265625 3.51171875 C5.79691162 3.47244263 5.79691162 3.47244263 4.33837891 3.43237305 C3.56671387 3.28968994 2.79504883 3.14700684 2 3 C1.34 2.01 0.68 1.02 0 0 Z " fill="#1E5FA1" transform="translate(100,7)"/>
<path d="M0 0 C0.33 0 0.66 0 1 0 C0.89037184 3.1257396 0.75968759 6.25024781 0.625 9.375 C0.5940625 10.26445313 0.563125 11.15390625 0.53125 12.0703125 C0.49257812 12.92109375 0.45390625 13.771875 0.4140625 14.6484375 C0.3826416 15.43395996 0.3512207 16.21948242 0.31884766 17.02880859 C0 19 0 19 -2 21 C-2.05390357 18.06225537 -2.0936255 15.12549768 -2.125 12.1875 C-2.14175781 11.35412109 -2.15851563 10.52074219 -2.17578125 9.66210938 C-2.18222656 8.85966797 -2.18867188 8.05722656 -2.1953125 7.23046875 C-2.20578613 6.49207764 -2.21625977 5.75368652 -2.22705078 4.99291992 C-2 3 -2 3 0 0 Z " fill="#1E5FA3" transform="translate(184,99)"/>
<path d="M0 0 C2.0625 0.4375 2.0625 0.4375 4 1 C4 3.31 4 5.62 4 8 C2.0625 8.5625 2.0625 8.5625 0 9 C-1 8 -1 8 -1.125 4.5 C-1 1 -1 1 0 0 Z " fill="#EDEDED" transform="translate(153,55)"/>
<path d="M0 0 C0 2.97 0 5.94 0 9 C-1.32 9 -2.64 9 -4 9 C-4 6.36 -4 3.72 -4 1 C-4.66 0.67 -5.32 0.34 -6 0 C-4 -1 -4 -1 0 0 Z " fill="#414141" transform="translate(94,23)"/>
<path d="M0 0 C2.79224073 -0.08071788 5.58216566 -0.14035408 8.375 -0.1875 C9.1690625 -0.21263672 9.963125 -0.23777344 10.78125 -0.26367188 C12.85586148 -0.29004405 14.93100865 -0.15486462 17 0 C17.66 0.99 18.32 1.98 19 3 C12.35590042 3.21432579 6.46794133 2.51233701 0 1 C0 0.67 0 0.34 0 0 Z " fill="#1D5D9F" transform="translate(73,181)"/>
<path d="M0 0 C3.3 0 6.6 0 10 0 C9.67 1.65 9.34 3.3 9 5 C8.01 5.33 7.02 5.66 6 6 C6 5.01 6 4.02 6 3 C4.02 3.33 2.04 3.66 0 4 C0 2.68 0 1.36 0 0 Z " fill="#515152" transform="translate(130,146)"/>
<path d="M0 0 C0.33 0 0.66 0 1 0 C1.08687496 3.12482562 1.14034568 6.24934246 1.1875 9.375 C1.21263672 10.26445313 1.23777344 11.15390625 1.26367188 12.0703125 C1.27333984 12.92109375 1.28300781 13.771875 1.29296875 14.6484375 C1.3086792 15.43395996 1.32438965 16.21948242 1.34057617 17.02880859 C1.22818604 17.67930176 1.1157959 18.32979492 1 19 C0.01 19.66 -0.98 20.32 -2 21 C-1.7525 19.2984375 -1.7525 19.2984375 -1.5 17.5625 C-1.00672103 13.70533253 -0.95075628 9.96121921 -1.0625 6.078125 C-0.99751008 3.9172103 -0.59730791 2.07191182 0 0 Z " fill="#1D5D9F" transform="translate(10,71)"/>
<path d="M0 0 C2.1519437 3.22791555 2.20086443 4.28400809 2 8 C2.99 8 3.98 8 5 8 C5 6.02 5 4.04 5 2 C5.99 2.33 6.98 2.66 8 3 C8.125 5.375 8.125 5.375 8 8 C6 10 6 10 3.5 10.25 C1 10 1 10 -1 8 C-1.1875 4.4375 -1.1875 4.4375 -1 1 C-0.67 0.67 -0.34 0.34 0 0 Z " fill="#141414" transform="translate(93,159)"/>
<path d="M0 0 C0.33 0 0.66 0 1 0 C1 6.27 1 12.54 1 19 C0.67 18.34 0.34 17.68 0 17 C-0.66 17 -1.32 17 -2 17 C-2 16.34 -2 15.68 -2 15 C-1.34 15 -0.68 15 0 15 C0 13.35 0 11.7 0 10 C-1.32 9.34 -2.64 8.68 -4 8 C-3.34 7.01 -2.68 6.02 -2 5 C-1.34 5 -0.68 5 0 5 C0 3.35 0 1.7 0 0 Z " fill="#275A90" transform="translate(176,88)"/>
<path d="M0 0 C3.3 0 6.6 0 10 0 C10 1.32 10 2.64 10 4 C6.7 4 3.4 4 0 4 C0 2.68 0 1.36 0 0 Z " fill="#68686D" transform="translate(125,135)"/>
<path d="M0 0 C0.66 0 1.32 0 2 0 C2.33 3.63 2.66 7.26 3 11 C1.02 11 -0.96 11 -3 11 C-2.34 10.67 -1.68 10.34 -1 10 C-1.01160156 9.36191406 -1.02320313 8.72382812 -1.03515625 8.06640625 C-1.04417969 7.24011719 -1.05320313 6.41382813 -1.0625 5.5625 C-1.07410156 4.73878906 -1.08570313 3.91507813 -1.09765625 3.06640625 C-1 1 -1 1 0 0 Z " fill="#333334" transform="translate(136,32)"/>
<path d="M0 0 C4.95 0 9.9 0 15 0 C12.14521674 1.90318884 10.58058692 2.4619099 7.3125 3.125 C6.50425781 3.29257813 5.69601563 3.46015625 4.86328125 3.6328125 C4.24839844 3.75398437 3.63351563 3.87515625 3 4 C2.01 2.68 1.02 1.36 0 0 Z " fill="#133F78" transform="translate(86,177)"/>
<path d="M0 0 C2.375 -0.1875 2.375 -0.1875 5 0 C5.66 0.99 6.32 1.98 7 3 C6.67 3.66 6.34 4.32 6 5 C5.34 5 4.68 5 4 5 C3.67 5.99 3.34 6.98 3 8 C2.01 7.67 1.02 7.34 0 7 C0.66 5.35 1.32 3.7 2 2 C1.34 2 0.68 2 0 2 C0 1.34 0 0.68 0 0 Z " fill="#B5B5BD" transform="translate(58,134)"/>
<path d="M0 0 C0.33 0 0.66 0 1 0 C1 1.98 1 3.96 1 6 C1.66 6 2.32 6 3 6 C3 8.64 3 11.28 3 14 C3.66 14 4.32 14 5 14 C5.33 16.64 5.66 19.28 6 22 C1.71381927 18.38616135 1.0374647 13.30259735 0 8 C-0.20493333 5.26755554 -0.15528521 2.74337208 0 0 Z " fill="#2D74BF" transform="translate(17,105)"/>
<path d="M0 0 C0.66 0.66 1.32 1.32 2 2 C-0.2483966 3.46085662 -2.49862173 4.91875136 -4.75 6.375 C-5.38421875 6.7875 -6.0184375 7.2 -6.671875 7.625 C-9.71355176 9.58941624 -12.70190547 11.48420908 -16 13 C-13.04972422 8.91114692 -9.98312884 6.40222393 -5.75 3.6875 C-4.13351563 2.64142578 -4.13351563 2.64142578 -2.484375 1.57421875 C-1.66453125 1.05472656 -0.8446875 0.53523437 0 0 Z " fill="#2B87E2" transform="translate(52,15)"/>
<path d="M0 0 C1.32 0 2.64 0 4 0 C5.39431504 2.78863007 5.25660094 4.92078868 5 8 C1.55549263 10.29633824 -0.93812283 10.54016485 -5 11 C-4.67 10.34 -4.34 9.68 -4 9 C-3.175 8.731875 -2.35 8.46375 -1.5 8.1875 C1.23999135 7.24098248 1.23999135 7.24098248 1.9375 4.5 C1.958125 3.675 1.97875 2.85 2 2 C1.34 1.34 0.68 0.68 0 0 Z " fill="#B1B1B2" transform="translate(62,151)"/>
<path d="M0 0 C2.875 -0.125 2.875 -0.125 6 0 C8.58926331 2.58926331 8.37398043 4.02705279 8.625 7.625 C8.69976562 8.62789062 8.77453125 9.63078125 8.8515625 10.6640625 C8.92503906 11.82035156 8.92503906 11.82035156 9 13 C8.34 13 7.68 13 7 13 C5.80712589 9.12315913 5 6.08378077 5 2 C3.35 1.67 1.7 1.34 0 1 C0 0.67 0 0.34 0 0 Z " fill="#A0A0A2" transform="translate(24,88)"/>
<path d="M0 0 C0.66 0 1.32 0 2 0 C2.33 0.99 2.66 1.98 3 3 C7.95 3.33 12.9 3.66 18 4 C18 4.33 18 4.66 18 5 C8.595 5.495 8.595 5.495 -1 6 C-1.33 5.34 -1.66 4.68 -2 4 C-1.01 4 -0.02 4 1 4 C1 3.34 1 2.68 1 2 C0.34 1.67 -0.32 1.34 -1 1 C-0.67 0.67 -0.34 0.34 0 0 Z " fill="#DCDCE8" transform="translate(118,136)"/>
<path d="M0 0 C1.32 0.66 2.64 1.32 4 2 C4.61989796 10.05867347 4.61989796 10.05867347 2.3125 13.5625 C-0.37484955 15.23301458 -1.89156165 15.34538204 -5 15 C-2 13 -2 13 0 13 C2.09429461 9.59677126 2.33706208 6.96047946 2 3 C1.34 2.01 0.68 1.02 0 0 Z " fill="#A3A3A4" transform="translate(167,90)"/>
<path d="M0 0 C1.01382963 3.6208201 1.49897691 7.27811418 2 11 C1.01 11 0.02 11 -1 11 C-1 10.01 -1 9.02 -1 8 C-2.32 7.34 -3.64 6.68 -5 6 C-5 5.34 -5 4.68 -5 4 C-4.0409375 3.8453125 -4.0409375 3.8453125 -3.0625 3.6875 C-2.381875 3.460625 -1.70125 3.23375 -1 3 C-0.67 2.01 -0.34 1.02 0 0 Z " fill="#141414" transform="translate(157,124)"/>
<path d="M0 0 C0.66 0.33 1.32 0.66 2 1 C1 4 1 4 -1.21484375 5.421875 C-2.56255859 6.07929687 -2.56255859 6.07929687 -3.9375 6.75 C-4.83339844 7.19859375 -5.72929688 7.6471875 -6.65234375 8.109375 C-7.42707031 8.40328125 -8.20179687 8.6971875 -9 9 C-9.66 8.67 -10.32 8.34 -11 8 C-7.37 5.36 -3.74 2.72 0 0 Z " fill="#1F1F75" transform="translate(62,113)"/>
<path d="M0 0 C0 0.99 0 1.98 0 3 C-2.8125 4.5625 -2.8125 4.5625 -6 6 C-6.99 5.67 -7.98 5.34 -9 5 C-4.5 0 -4.5 0 0 0 Z " fill="#0E0E70" transform="translate(72,109)"/>
<path d="M0 0 C0 0.66 0 1.32 0 2 C-0.99 2.66 -1.98 3.32 -3 4 C-2.67 4.66 -2.34 5.32 -2 6 C-3.65 6.66 -5.3 7.32 -7 8 C-7.33 7.34 -7.66 6.68 -8 6 C-8.66 5.67 -9.32 5.34 -10 5 C-8.71186658 4.16121545 -7.41936744 3.32913217 -6.125 2.5 C-5.40570313 2.0359375 -4.68640625 1.571875 -3.9453125 1.09375 C-2 0 -2 0 0 0 Z " fill="#1F1F94" transform="translate(89,97)"/>
<path d="M0 0 C0.99 0.33 1.98 0.66 3 1 C3 3.64 3 6.28 3 9 C1.68 8.67 0.36 8.34 -1 8 C-1 7.34 -1 6.68 -1 6 C-1.020625 5.154375 -1.04125 4.30875 -1.0625 3.4375 C-1 1 -1 1 0 0 Z " fill="#B5B5B5" transform="translate(164,91)"/>
<path d="M0 0 C0.66 0.33 1.32 0.66 2 1 C2.44921875 3.21484375 2.44921875 3.21484375 2.6875 5.9375 C2.77386719 6.83339844 2.86023438 7.72929687 2.94921875 8.65234375 C3 11 3 11 2 13 C0.68 12.67 -0.64 12.34 -2 12 C-1.34 11.67 -0.68 11.34 0 11 C-0.185625 9.9275 -0.37125 8.855 -0.5625 7.75 C-0.9304568 4.59608454 -1.04465343 2.90181508 0 0 Z " fill="#909090" transform="translate(158,124)"/>
<path d="M0 0 C1.485 0.99 1.485 0.99 3 2 C3.2208564 4.95064148 3.28060989 7.68368231 3.1875 10.625 C3.17396484 11.42679688 3.16042969 12.22859375 3.14648438 13.0546875 C3.11109051 15.03674378 3.05728234 17.01845551 3 19 C2.67 19 2.34 19 2 19 C1.34 12.73 0.68 6.46 0 0 Z " fill="#1D5C9D" transform="translate(8,100)"/>
<path d="M0 0 C1.65 0 3.3 0 5 0 C5.66 1.65 6.32 3.3 7 5 C4.69 4.67 2.38 4.34 0 4 C0 2.68 0 1.36 0 0 Z " fill="#05056B" transform="translate(94,92)"/>
<path d="M0 0 C0.66 0 1.32 0 2 0 C4.32101984 3.48152976 4.69903201 5.86169011 5 10 C3 12 3 12 -0.125 12.125 C-1.548125 12.063125 -1.548125 12.063125 -3 12 C-1.68 11.34 -0.36 10.68 1 10 C0.67 6.7 0.34 3.4 0 0 Z " fill="#B4B4B8" transform="translate(146,54)"/>
<path d="M0 0 C0.66 0 1.32 0 2 0 C2.33 3.96 2.66 7.92 3 12 C1.35 12 -0.3 12 -2 12 C-1.34 11.34 -0.68 10.68 0 10 C0.24287489 7.55987051 0.24287489 7.55987051 0.125 4.875 C0.10695312 3.96492188 0.08890625 3.05484375 0.0703125 2.1171875 C0.04710937 1.41851562 0.02390625 0.71984375 0 0 Z " fill="#AEAEAF" transform="translate(138,32)"/>
<path d="M0 0 C1.98 0 3.96 0 6 0 C6.33 1.65 6.66 3.3 7 5 C6.01 5.33 5.02 5.66 4 6 C4 4.35 4 2.7 4 1 C3.01 1 2.02 1 1 1 C1 1.99 1 2.98 1 4 C0.01 4 -0.98 4 -2 4 C-1.34 2.68 -0.68 1.36 0 0 Z " fill="#363636" transform="translate(98,22)"/>
<path d="M0 0 C-5.03996638 3.35997759 -9.99709677 4.29282455 -16 4 C-11.71327571 -0.28672429 -5.76159905 -0.23516731 0 0 Z " fill="#3194F4" transform="translate(83,6)"/>
<path d="M0 0 C0.66 0.33 1.32 0.66 2 1 C1.46324097 4.85103301 -0.11600923 6.31797587 -3.0625 8.75 C-4.16271484 9.67039063 -4.16271484 9.67039063 -5.28515625 10.609375 C-5.85105469 11.06828125 -6.41695312 11.5271875 -7 12 C-7.66 11.67 -8.32 11.34 -9 11 C-7.625 9.5 -7.625 9.5 -6 8 C-5.34 8 -4.68 8 -4 8 C-4.33 7.01 -4.66 6.02 -5 5 C-3.68 4.67 -2.36 4.34 -1 4 C-0.67 2.68 -0.34 1.36 0 0 Z " fill="#1F69B4" transform="translate(161,155)"/>
<path d="M0 0 C1.65 0.33 3.3 0.66 5 1 C5 1.99 5 2.98 5 4 C5.66 4 6.32 4 7 4 C7.33 3.34 7.66 2.68 8 2 C8 2.99 8 3.98 8 5 C5.03 5 2.06 5 -1 5 C-1 2 -1 2 0 0 Z " fill="#6C6C76" transform="translate(95,134)"/>
<path d="M0 0 C1.65 0.33 3.3 0.66 5 1 C5.33 2.65 5.66 4.3 6 6 C5.67 5.01 5.34 4.02 5 3 C4.34 3 3.68 3 3 3 C2.67 3.99 2.34 4.98 2 6 C1.01 5.67 0.02 5.34 -1 5 C-0.67 3.35 -0.34 1.7 0 0 Z " fill="#7575C8" transform="translate(109,97)"/>
<path d="M0 0 C2.97 0.33 5.94 0.66 9 1 C9 1.66 9 2.32 9 3 C11.97 3.495 11.97 3.495 15 4 C15 4.66 15 5.32 15 6 C9.45949887 5.43174347 4.96284034 3.37113483 0 1 C0 0.67 0 0.34 0 0 Z " fill="#216DBD" transform="translate(64,169)"/>
<path d="M0 0 C0.8125 1.6875 0.8125 1.6875 1 4 C-1.4375 6.75 -1.4375 6.75 -4 9 C-4.33 6.69 -4.66 4.38 -5 2 C-3.35 2 -1.7 2 0 2 C0 1.34 0 0.68 0 0 Z " fill="#346496" transform="translate(167,131)"/>
<path d="M0 0 C1.32 0.66 2.64 1.32 4 2 C2.9171875 2.37125 2.9171875 2.37125 1.8125 2.75 C-1.12299667 3.89501432 -1.12299667 3.89501432 -3.5625 6.1875 C-4.7690625 7.0846875 -4.7690625 7.0846875 -6 8 C-8.15234375 7.61328125 -8.15234375 7.61328125 -10 7 C-9.36191406 6.57847656 -8.72382812 6.15695313 -8.06640625 5.72265625 C-7.24011719 5.17480469 -6.41382812 4.62695312 -5.5625 4.0625 C-4.73878906 3.51722656 -3.91507812 2.97195312 -3.06640625 2.41015625 C-1.10014075 1.16197019 -1.10014075 1.16197019 0 0 Z " fill="#9B9BEF" transform="translate(94,97)"/>
<path d="M0 0 C-3.74525799 3.74525799 -7.98270909 3.68909949 -13 4 C-10 2 -10 2 -7 2 C-7 1.34 -7 0.68 -7 0 C-2.25 -1.125 -2.25 -1.125 0 0 Z " fill="#2E79C7" transform="translate(127,170)"/>
<path d="M0 0 C0.33 0 0.66 0 1 0 C0.25 7.625 0.25 7.625 -2 11 C-3 10 -3 10 -3.25 7.1875 C-2.97814149 3.72130405 -2.37281664 2.46772931 0 0 Z " fill="#14437C" transform="translate(15,83)"/>
<path d="M0 0 C3.3125 -0.25 3.3125 -0.25 7 0 C8.9375 2 8.9375 2 10 4 C6.53058454 3.54177532 3.32604951 3.10868317 0 2 C0 1.34 0 0.68 0 0 Z " fill="#14437C" transform="translate(98,11)"/>
<path d="M0 0 C1.98 0 3.96 0 6 0 C6 1.32 6 2.64 6 4 C4.02 4 2.04 4 0 4 C0 2.68 0 1.36 0 0 Z " fill="#777780" transform="translate(76,135)"/>
<path d="M0 0 C1.2065625 0.2475 1.2065625 0.2475 2.4375 0.5 C4.7284443 1.03191839 4.7284443 1.03191839 6 1 C6.33 2.32 6.66 3.64 7 5 C4.69 4.67 2.38 4.34 0 4 C0 2.68 0 1.36 0 0 Z " fill="#82828E" transform="translate(100,134)"/>
<path d="M0 0 C2.97 0.495 2.97 0.495 6 1 C5.42655063 3.86724686 5.1385485 4.8614515 3 7 C0 2.25 0 2.25 0 0 Z " fill="#31567C" transform="translate(25,132)"/>
<path d="M0 0 C2.475 0.495 2.475 0.495 5 1 C4.67 2.32 4.34 3.64 4 5 C2.68 4.67 1.36 4.34 0 4 C0 2.68 0 1.36 0 0 Z " fill="#BEBEBE" transform="translate(152,131)"/>
<path d="M0 0 C0.99 0 1.98 0 3 0 C3 1.65 3 3.3 3 5 C1.35 5 -0.3 5 -2 5 C-1.125 1.125 -1.125 1.125 0 0 Z " fill="#848484" transform="translate(36,127)"/>
<path d="M0 0 C0.99 0.33 1.98 0.66 3 1 C2.25 7.75 2.25 7.75 0 10 C0 6.7 0 3.4 0 0 Z " fill="#113A72" transform="translate(177,93)"/>
<path d="M0 0 C-0.99 1.485 -0.99 1.485 -2 3 C-2 2.34 -2 1.68 -2 1 C-3.65 1 -5.3 1 -7 1 C-7 1.66 -7 2.32 -7 3 C-9.97 2.67 -12.94 2.34 -16 2 C-16 1.67 -16 1.34 -16 1 C-10.61509359 0.08342019 -5.45769811 -0.11138159 0 0 Z " fill="#2662A4" transform="translate(96,15)"/>
<path d="M0 0 C2.31 0 4.62 0 7 0 C4.16569547 3.2542015 2.31392226 4.5206753 -2 5 C-1.34 4.67 -0.68 4.34 0 4 C0 2.68 0 1.36 0 0 Z " fill="#245A92" transform="translate(134,162)"/>
<path d="M0 0 C1.32 0 2.64 0 4 0 C3.67 1.65 3.34 3.3 3 5 C2.01 5.33 1.02 5.66 0 6 C-1 3 -1 3 0 0 Z " fill="#B9B9B9" transform="translate(24,90)"/>
<path d="M0 0 C0.66 0 1.32 0 2 0 C2.433125 1.423125 2.433125 1.423125 2.875 2.875 C3.76825109 6.05211578 3.76825109 6.05211578 6 8 C1.125 7.125 1.125 7.125 0 6 C-0.04080783 4.00041636 -0.04254356 1.99954746 0 0 Z " fill="#5A5A5A" transform="translate(104,85)"/>
<path d="M0 0 C2.64 0.33 5.28 0.66 8 1 C8 1.66 8 2.32 8 3 C4.7 3 1.4 3 -2 3 C-1.34 2.67 -0.68 2.34 0 2 C0 1.34 0 0.68 0 0 Z " fill="#286DB7" transform="translate(104,173)"/>
<path d="M0 0 C0 0.99 0 1.98 0 3 C-2.97 3 -5.94 3 -9 3 C-9 2.34 -9 1.68 -9 1 C-2.25 0 -2.25 0 0 0 Z " fill="#296DB5" transform="translate(89,173)"/>
<path d="M0 0 C0.33 0 0.66 0 1 0 C2.33500455 5.34001821 1.512545 8.83955235 0 14 C-0.33 14 -0.66 14 -1 14 C-1.02705729 12.22925083 -1.04642195 10.45838289 -1.0625 8.6875 C-1.07410156 7.70136719 -1.08570313 6.71523437 -1.09765625 5.69921875 C-1 3 -1 3 0 0 Z " fill="#2269B2" transform="translate(8,79)"/>
<path d="M0 0 C1.14926266 0.95421808 2.29430541 1.91352045 3.4375 2.875 C4.07558594 3.40867187 4.71367188 3.94234375 5.37109375 4.4921875 C7 6 7 6 8 8 C4.74333728 7.43850643 3.04376677 6.62770014 1 4 C0.63380682 2.67531459 0.29609106 1.34209499 0 0 Z " fill="#7575D9" transform="translate(85,85)"/>
<path d="M0 0 C0.99 0 1.98 0 3 0 C3 2.31 3 4.62 3 7 C2.01 6.67 1.02 6.34 0 6 C0 4.02 0 2.04 0 0 Z " fill="#FDFDFD" transform="translate(132,35)"/>
<path d="M0 0 C2.475 0.495 2.475 0.495 5 1 C4.67 2.32 4.34 3.64 4 5 C3.67 4.67 3.34 4.34 3 4 C2.67 4.66 2.34 5.32 2 6 C1.34 5.67 0.68 5.34 0 5 C0 3.35 0 1.7 0 0 Z " fill="#5B5B61" transform="translate(70,134)"/>
<path d="M0 0 C3.48872415 1.16290805 4.09976864 2.13967609 6.1875 5.0625 C6.71730469 5.79597656 7.24710937 6.52945313 7.79296875 7.28515625 C8.19128906 7.85105469 8.58960937 8.41695312 9 9 C8.01 9 7.02 9 6 9 C4.39453125 7.03125 4.39453125 7.03125 2.8125 4.5 C2.28269531 3.6646875 1.75289063 2.829375 1.20703125 1.96875 C0.80871094 1.3190625 0.41039063 0.669375 0 0 Z " fill="#484892" transform="translate(64,57)"/>
<path d="M0 0 C0.99 0.33 1.98 0.66 3 1 C2.67 1.33 2.34 1.66 2 2 C1.63239269 4.32817964 1.29758419 6.6618385 1 9 C0.34 8.67 -0.32 8.34 -1 8 C-1.04241723 5.66705225 -1.04092937 3.33297433 -1 1 C-0.67 0.67 -0.34 0.34 0 0 Z " fill="#8F8F8F" transform="translate(153,55)"/>
<path d="M0 0 C0.66 0.33 1.32 0.66 2 1 C1.04663979 2.31611677 0.08714226 3.62778961 -0.875 4.9375 C-1.40867187 5.66839844 -1.94234375 6.39929687 -2.4921875 7.15234375 C-4 9 -4 9 -6 10 C-4.6302836 6.00499382 -2.74277578 3.19990508 0 0 Z " fill="#1E5EA0" transform="translate(27,38)"/>
<path d="M0 0 C0.66 0.99 1.32 1.98 2 3 C1.125 6.6875 1.125 6.6875 0 10 C-0.66 9.67 -1.32 9.34 -2 9 C-1.34 6.03 -0.68 3.06 0 0 Z " fill="#2576C7" transform="translate(181,122)"/>
<path d="M0 0 C-0.66 1.98 -1.32 3.96 -2 6 C-2.66 6 -3.32 6 -4 6 C-4 5.34 -4 4.68 -4 4 C-4.66 3.67 -5.32 3.34 -6 3 C-2.25 0 -2.25 0 0 0 Z " fill="#161682" transform="translate(76,105)"/>
<path d="M0 0 C2.64 0 5.28 0 8 0 C8 0.33 8 0.66 8 1 C6.02 1 4.04 1 2 1 C1.67 2.32 1.34 3.64 1 5 C0.34 4.67 -0.32 4.34 -1 4 C-0.67 2.68 -0.34 1.36 0 0 Z " fill="#193F6A" transform="translate(96,15)"/>
<path d="M0 0 C0.99 0 1.98 0 3 0 C3 1.65 3 3.3 3 5 C2.01 5.33 1.02 5.66 0 6 C0 4.02 0 2.04 0 0 Z " fill="#D9D9D9" transform="translate(96,162)"/>
<path d="M0 0 C3.53586014 3.17320782 5.58578031 5.16743695 6 10 C3.25722422 6.80009492 1.3697164 3.99500618 0 0 Z " fill="#226BB5" transform="translate(17,137)"/>
<path d="M0 0 C0.99 0.33 1.98 0.66 3 1 C2.34 3.64 1.68 6.28 1 9 C-1 6 -1 6 -0.625 2.8125 C-0.41875 1.884375 -0.2125 0.95625 0 0 Z " fill="#2578CB" transform="translate(9,66)"/>
</svg>
